SplineFontDB: 3.2
FontName: FdSymbolC-Bold
FullName: FdSymbolC-Bold
FamilyName: FdSymbolC
Weight: Bold
Copyright: Copyright (c) 2011-2025, Michael Ummels. This Font Software is licensed under the SIL Open Font License, Version 1.1.
Version: 1.010
ItalicAngle: 0
UnderlinePosition: -100
UnderlineWidth: 50
Ascent: 800
Descent: 200
InvalidEm: 0
LayerCount: 2
Layer: 0 0 "Back" 1
Layer: 1 0 "Fore" 0
OS2Version: 0
OS2_WeightWidthSlopeOnly: 0
OS2_UseTypoMetrics: 0
CreationTime: 1739799034
ModificationTime: 1739799034
OS2TypoAscent: 0
OS2TypoAOffset: 1
OS2TypoDescent: 0
OS2TypoDOffset: 1
OS2TypoLinegap: 0
OS2WinAscent: 0
OS2WinAOffset: 1
OS2WinDescent: 0
OS2WinDOffset: 1
HheadAscent: 0
HheadAOffset: 1
HheadDescent: 0
HheadDOffset: 1
OS2Vendor: 'PfEd'
DEI: 91125
Encoding: Custom
UnicodeInterp: none
NameList: AGL For New Fonts
DisplaySize: -48
AntiAlias: 1
FitToEm: 0
BeginPrivate: 2
BlueValues 31 [-10 0 546 556 707 717 754 764]
OtherBlues 11 [-230 -220]
EndPrivate
BeginChars: 256 238

StartChar: arrowright
Encoding: 0 8594 0
Width: 930
Flags: HW
HStem: 250 100<90 669>
LayerCount: 2
Fore
SplineSet
861 300 m 1
 666 105 l 1
 595 176 l 1
 669 250 l 1
 90 250 l 1
 90 350 l 1
 669 350 l 1
 595 424 l 1
 666 495 l 1
 861 300 l 1
EndSplineSet
EndChar

StartChar: arrowup
Encoding: 1 8593 1
Width: 598
Flags: HW
VStem: 249 100<-75 504>
LayerCount: 2
Fore
SplineSet
299 696 m 1
 494 501 l 1
 423 430 l 1
 349 504 l 1
 349 -75 l 1
 249 -75 l 1
 249 504 l 1
 175 430 l 1
 105 501 l 1
 299 696 l 1
EndSplineSet
EndChar

StartChar: arrowleft
Encoding: 2 8592 2
Width: 930
Flags: HW
HStem: 250 100<261 840>
LayerCount: 2
Fore
SplineSet
69 300 m 1
 264 495 l 1
 335 424 l 1
 261 350 l 1
 840 350 l 1
 840 250 l 1
 261 250 l 1
 335 176 l 1
 264 105 l 1
 69 300 l 1
EndSplineSet
EndChar

StartChar: arrowdown
Encoding: 3 8595 3
Width: 598
Flags: HW
VStem: 249 100<96 675>
LayerCount: 2
Fore
SplineSet
299 -96 m 1
 105 99 l 1
 175 170 l 1
 249 96 l 1
 249 675 l 1
 349 675 l 1
 349 96 l 1
 423 170 l 1
 494 99 l 1
 299 -96 l 1
EndSplineSet
EndChar

StartChar: uni2197
Encoding: 4 8599 4
Width: 1006
Flags: HW
HStem: -1 21G<253.282 293> 480 100<508 613>
VStem: 683 100<305 409>
LayerCount: 2
Fore
SplineSet
783 580 m 1
 783 305 l 1
 683 305 l 1
 683 409 l 1
 273 -1 l 1
 203 70 l 1
 613 480 l 1
 508 480 l 1
 508 580 l 1
 783 580 l 1
EndSplineSet
EndChar

StartChar: uni2196
Encoding: 5 8598 5
Width: 1006
Flags: HW
HStem: -1 21G<713 753> 480 100<394 498>
VStem: 223 100<305 409>
LayerCount: 2
Fore
SplineSet
223 580 m 1
 498 580 l 1
 498 480 l 1
 394 480 l 1
 804 70 l 1
 733 -1 l 1
 323 409 l 1
 323 305 l 1
 223 305 l 1
 223 580 l 1
EndSplineSet
EndChar

StartChar: uni2199
Encoding: 6 8601 6
Width: 1006
Flags: HW
HStem: 20 100<394 498>
VStem: 223 100<191 295>
LayerCount: 2
Fore
SplineSet
223 20 m 1
 223 295 l 1
 323 295 l 1
 323 191 l 1
 733 601 l 1
 804 530 l 1
 394 120 l 1
 498 120 l 1
 498 20 l 1
 223 20 l 1
EndSplineSet
EndChar

StartChar: uni2198
Encoding: 7 8600 7
Width: 1006
Flags: HW
HStem: 20 100<508 613>
VStem: 683 100<191 295>
LayerCount: 2
Fore
SplineSet
783 20 m 1
 508 20 l 1
 508 120 l 1
 613 120 l 1
 203 530 l 1
 273 601 l 1
 683 191 l 1
 683 295 l 1
 783 295 l 1
 783 20 l 1
EndSplineSet
EndChar

StartChar: arrowdblright
Encoding: 8 8658 8
Width: 1080
Flags: HW
HStem: 150 100<90 721> 350 100<90 721>
LayerCount: 2
Fore
SplineSet
1011 300 m 1
 768 58 l 1
 698 128 l 1
 721 151 l 1
 90 150 l 1
 90 250 l 1
 820 251 l 1
 869 300 l 1
 820 349 l 1
 90 350 l 1
 90 450 l 1
 721 449 l 1
 698 472 l 1
 768 542 l 1
 1011 300 l 1
EndSplineSet
EndChar

StartChar: arrowdblup
Encoding: 9 8657 9
Width: 694
Flags: HW
VStem: 197 100<-150 480> 396 100<-150 481>
LayerCount: 2
Fore
SplineSet
347 771 m 1
 589 528 l 1
 519 458 l 1
 496 481 l 1
 496 -150 l 1
 396 -150 l 1
 396 580 l 1
 347 629 l 1
 297 579 l 1
 297 -150 l 1
 197 -150 l 1
 197 480 l 1
 175 458 l 1
 105 528 l 1
 347 771 l 1
EndSplineSet
EndChar

StartChar: arrowdblleft
Encoding: 10 8656 10
Width: 1080
Flags: HW
HStem: 151 100<359 990> 349 100<359 990>
LayerCount: 2
Fore
SplineSet
69 300 m 1
 312 542 l 1
 382 472 l 1
 359 449 l 1
 990 450 l 1
 990 350 l 1
 260 349 l 1
 211 300 l 1
 260 251 l 1
 990 250 l 1
 990 150 l 1
 359 151 l 1
 382 128 l 1
 312 58 l 1
 69 300 l 1
EndSplineSet
EndChar

StartChar: arrowdbldown
Encoding: 11 8659 11
Width: 694
Flags: HW
VStem: 197 100<120 750> 396 100<119 750>
LayerCount: 2
Fore
SplineSet
347 -171 m 1
 105 72 l 1
 175 142 l 1
 197 120 l 1
 197 750 l 1
 297 750 l 1
 297 21 l 1
 347 -29 l 1
 396 20 l 1
 396 750 l 1
 496 750 l 1
 496 119 l 1
 519 142 l 1
 589 72 l 1
 347 -171 l 1
EndSplineSet
EndChar

StartChar: uni21D7
Encoding: 12 8663 12
Width: 1180
Flags: HW
HStem: 533 100<580 612 753 823>
VStem: 823 100<290 322 463 533>
LayerCount: 2
Fore
SplineSet
923 633 m 1
 923 290 l 1
 823 290 l 1
 823 322 l 1
 377 -124 l 1
 307 -53 l 1
 823 463 l 1
 823 533 l 1
 753 533 l 1
 237 17 l 1
 166 88 l 1
 612 533 l 1
 580 533 l 1
 580 633 l 1
 923 633 l 1
EndSplineSet
EndChar

StartChar: uni21D6
Encoding: 13 8662 13
Width: 1180
Flags: HW
HStem: 533 100<357 426 568 600>
VStem: 257 100<290 322 462 533>
LayerCount: 2
Fore
SplineSet
257 633 m 1
 600 633 l 1
 600 533 l 1
 568 533 l 1
 1014 88 l 1
 943 17 l 1
 426 533 l 1
 357 533 l 1
 357 462 l 1
 873 -53 l 1
 802 -124 l 1
 357 322 l 1
 357 290 l 1
 257 290 l 1
 257 633 l 1
EndSplineSet
EndChar

StartChar: uni21D9
Encoding: 14 8665 14
Width: 1180
Flags: HW
HStem: -33 100<357 426 568 600>
VStem: 257 100<67 138 278 310>
LayerCount: 2
Fore
SplineSet
257 -33 m 1
 257 310 l 1
 357 310 l 1
 357 278 l 1
 802 724 l 1
 873 653 l 1
 357 138 l 1
 357 67 l 1
 426 67 l 1
 943 583 l 1
 1014 512 l 1
 568 67 l 1
 600 67 l 1
 600 -33 l 1
 257 -33 l 1
EndSplineSet
EndChar

StartChar: uni21D8
Encoding: 15 8664 15
Width: 1180
Flags: HW
HStem: -33 100<580 612 753 823>
VStem: 823 100<67 137 278 310>
LayerCount: 2
Fore
SplineSet
923 -33 m 1
 580 -33 l 1
 580 67 l 1
 612 67 l 1
 166 512 l 1
 237 583 l 1
 753 67 l 1
 823 67 l 1
 823 137 l 1
 307 653 l 1
 377 724 l 1
 823 278 l 1
 823 310 l 1
 923 310 l 1
 923 -33 l 1
EndSplineSet
EndChar

StartChar: arrowboth
Encoding: 16 8596 16
Width: 1080
Flags: HW
HStem: 250 100<261 819>
LayerCount: 2
Fore
SplineSet
69 300 m 1
 264 495 l 1
 335 424 l 1
 261 350 l 1
 819 350 l 1
 745 424 l 1
 816 495 l 1
 1011 300 l 1
 816 105 l 1
 745 176 l 1
 819 250 l 1
 261 250 l 1
 335 176 l 1
 264 105 l 1
 69 300 l 1
EndSplineSet
EndChar

StartChar: arrowupdn
Encoding: 17 8597 17
Width: 598
Flags: HW
VStem: 249 100<21 579>
LayerCount: 2
Fore
SplineSet
299 -171 m 1
 105 24 l 1
 175 95 l 1
 249 21 l 1
 249 579 l 1
 175 505 l 1
 105 576 l 1
 299 771 l 1
 494 576 l 1
 423 505 l 1
 349 579 l 1
 349 21 l 1
 423 95 l 1
 494 24 l 1
 299 -171 l 1
EndSplineSet
EndChar

StartChar: uni2921
Encoding: 18 10529 18
Width: 1112
Flags: HW
HStem: -33 100<394 498> 533 100<614 719>
VStem: 223 100<138 242> 789 100<358 462>
LayerCount: 2
Fore
SplineSet
223 -33 m 1
 223 242 l 1
 323 242 l 1
 323 138 l 1
 719 533 l 1
 614 533 l 1
 614 633 l 1
 889 633 l 1
 889 358 l 1
 789 358 l 1
 789 462 l 1
 394 67 l 1
 498 67 l 1
 498 -33 l 1
 223 -33 l 1
EndSplineSet
EndChar

StartChar: uni2922
Encoding: 19 10530 19
Width: 1112
Flags: HW
HStem: -33 100<614 719> 533 100<394 498>
VStem: 223 100<358 462> 789 100<138 242>
LayerCount: 2
Fore
SplineSet
889 -33 m 1
 614 -33 l 1
 614 67 l 1
 719 67 l 1
 323 462 l 1
 323 358 l 1
 223 358 l 1
 223 633 l 1
 498 633 l 1
 498 533 l 1
 394 533 l 1
 789 138 l 1
 789 242 l 1
 889 242 l 1
 889 -33 l 1
EndSplineSet
EndChar

StartChar: arrowdblboth
Encoding: 20 8660 20
Width: 1230
Flags: HW
HStem: 151 100<359 871> 349 100<359 871>
LayerCount: 2
Fore
SplineSet
970 349 m 1
 260 349 l 1
 211 300 l 1
 260 251 l 1
 970 251 l 1
 1019 300 l 1
 970 349 l 1
69 300 m 1
 312 542 l 1
 382 472 l 1
 359 449 l 1
 871 449 l 1
 848 472 l 1
 918 542 l 1
 1161 300 l 1
 918 58 l 1
 848 128 l 1
 871 151 l 1
 359 151 l 1
 382 128 l 1
 312 58 l 1
 69 300 l 1
EndSplineSet
EndChar

StartChar: uni21D5
Encoding: 21 8661 21
Width: 694
Flags: HW
VStem: 197 100<45 555> 396 100<44 556>
LayerCount: 2
Fore
SplineSet
297 654 m 1
 297 -54 l 1
 347 -104 l 1
 396 -55 l 1
 396 655 l 1
 347 704 l 1
 297 654 l 1
347 -246 m 1
 105 -3 l 1
 175 67 l 1
 197 45 l 1
 197 555 l 1
 175 533 l 1
 105 603 l 1
 347 846 l 1
 589 603 l 1
 519 533 l 1
 496 556 l 1
 496 44 l 1
 519 67 l 1
 589 -3 l 1
 347 -246 l 1
EndSplineSet
EndChar

StartChar: sym030
Encoding: 22 -1 22
Width: 1286
Flags: HW
HStem: -86 100<357 427 568 600> 586 100<686 718 858 929>
VStem: 257 100<14 84 225 257> 929 100<343 375 517 586>
LayerCount: 2
Fore
SplineSet
858 586 m 1
 357 84 l 1
 357 14 l 1
 427 14 l 1
 929 517 l 1
 929 586 l 1
 858 586 l 1
257 -86 m 1
 257 257 l 1
 357 257 l 1
 357 225 l 1
 718 586 l 1
 686 586 l 1
 686 686 l 1
 1029 686 l 1
 1029 343 l 1
 929 343 l 1
 929 375 l 1
 568 14 l 1
 600 14 l 1
 600 -86 l 1
 257 -86 l 1
EndSplineSet
EndChar

StartChar: sym031
Encoding: 23 -1 23
Width: 1286
Flags: HW
HStem: -86 100<686 718 858 929> 586 100<357 427 568 600>
VStem: 257 100<343 375 516 586> 929 100<14 83 225 257>
LayerCount: 2
Fore
SplineSet
357 516 m 1
 858 14 l 1
 929 14 l 1
 929 83 l 1
 427 586 l 1
 357 586 l 1
 357 516 l 1
1029 -86 m 1
 686 -86 l 1
 686 14 l 1
 718 14 l 1
 357 375 l 1
 357 343 l 1
 257 343 l 1
 257 686 l 1
 600 686 l 1
 600 586 l 1
 568 586 l 1
 929 225 l 1
 929 257 l 1
 1029 257 l 1
 1029 -86 l 1
EndSplineSet
EndChar

StartChar: uni21A0
Encoding: 24 8608 24
Width: 1118
Flags: HW
HStem: 250 100<90 622 764 857>
LayerCount: 2
Fore
SplineSet
1048 300 m 1
 854 105 l 1
 783 176 l 1
 857 250 l 1
 764 250 l 1
 619 105 l 1
 549 176 l 1
 622 250 l 1
 90 250 l 1
 90 350 l 1
 622 350 l 1
 549 424 l 1
 619 495 l 1
 764 350 l 1
 857 350 l 1
 783 424 l 1
 854 495 l 1
 1048 300 l 1
EndSplineSet
EndChar

StartChar: uni219F
Encoding: 25 8607 25
Width: 598
Flags: HW
VStem: 249 100<-169 364 505 598>
LayerCount: 2
Fore
SplineSet
299 789 m 1
 494 595 l 1
 423 524 l 1
 349 598 l 1
 349 505 l 1
 494 361 l 1
 423 290 l 1
 349 364 l 1
 349 -169 l 1
 249 -169 l 1
 249 364 l 1
 175 290 l 1
 105 361 l 1
 249 505 l 1
 249 598 l 1
 175 524 l 1
 105 595 l 1
 299 789 l 1
EndSplineSet
EndChar

StartChar: uni219E
Encoding: 26 8606 26
Width: 1118
Flags: HW
HStem: 250 100<261 354 495 1028>
LayerCount: 2
Fore
SplineSet
69 300 m 1
 264 495 l 1
 335 424 l 1
 261 350 l 1
 354 350 l 1
 498 495 l 1
 569 424 l 1
 495 350 l 1
 1028 350 l 1
 1028 250 l 1
 495 250 l 1
 569 176 l 1
 498 105 l 1
 354 250 l 1
 261 250 l 1
 335 176 l 1
 264 105 l 1
 69 300 l 1
EndSplineSet
EndChar

StartChar: uni21A1
Encoding: 27 8609 27
Width: 598
Flags: HW
VStem: 249 100<2 95 236 769>
LayerCount: 2
Fore
SplineSet
299 -189 m 1
 105 5 l 1
 175 76 l 1
 249 2 l 1
 249 95 l 1
 105 239 l 1
 175 310 l 1
 249 236 l 1
 249 769 l 1
 349 769 l 1
 349 236 l 1
 423 310 l 1
 494 239 l 1
 349 95 l 1
 349 2 l 1
 423 76 l 1
 494 5 l 1
 299 -189 l 1
EndSplineSet
EndChar

StartChar: sym033
Encoding: 28 -1 28
Width: 1139
Flags: HW
HStem: 380 100<475 579> 546 100<640 745>
VStem: 650 100<205 310> 815 100<371 475>
LayerCount: 2
Fore
SplineSet
915 646 m 1
 915 371 l 1
 815 371 l 1
 815 475 l 1
 750 410 l 1
 750 205 l 1
 650 205 l 1
 650 310 l 1
 273 -67 l 1
 203 4 l 1
 579 380 l 1
 475 380 l 1
 475 480 l 1
 679 480 l 1
 745 546 l 1
 640 546 l 1
 640 646 l 1
 915 646 l 1
EndSplineSet
EndChar

StartChar: sym032
Encoding: 29 -1 29
Width: 1139
Flags: HW
HStem: 380 100<560 664> 546 100<394 498>
VStem: 223 100<371 476> 389 100<205 310>
LayerCount: 2
Fore
SplineSet
223 646 m 1
 498 646 l 1
 498 546 l 1
 394 546 l 1
 460 480 l 1
 664 480 l 1
 664 380 l 1
 560 380 l 1
 936 4 l 1
 865 -67 l 1
 489 310 l 1
 489 205 l 1
 389 205 l 1
 389 410 l 1
 323 476 l 1
 323 371 l 1
 223 371 l 1
 223 646 l 1
EndSplineSet
EndChar

StartChar: sym035
Encoding: 30 -1 30
Width: 1139
Flags: HW
HStem: -46 100<394 498> 120 100<560 664>
VStem: 223 100<124 229> 389 100<290 395>
LayerCount: 2
Fore
SplineSet
223 -46 m 1
 223 229 l 1
 323 229 l 1
 323 124 l 1
 389 190 l 1
 389 395 l 1
 489 395 l 1
 489 290 l 1
 865 667 l 1
 936 596 l 1
 560 220 l 1
 664 220 l 1
 664 120 l 1
 460 120 l 1
 394 54 l 1
 498 54 l 1
 498 -46 l 1
 223 -46 l 1
EndSplineSet
EndChar

StartChar: sym034
Encoding: 31 -1 31
Width: 1139
Flags: HW
HStem: -46 100<640 745> 120 100<475 579>
VStem: 650 100<290 395> 815 100<125 229>
LayerCount: 2
Fore
SplineSet
915 -46 m 1
 640 -46 l 1
 640 54 l 1
 745 54 l 1
 679 120 l 1
 475 120 l 1
 475 220 l 1
 579 220 l 1
 203 596 l 1
 273 667 l 1
 650 290 l 1
 650 395 l 1
 750 395 l 1
 750 190 l 1
 815 125 l 1
 815 229 l 1
 915 229 l 1
 915 -46 l 1
EndSplineSet
EndChar

StartChar: uni21A3
Encoding: 32 8611 32
Width: 930
Flags: HW
HStem: 250 100<320 669>
LayerCount: 2
Fore
SplineSet
861 300 m 1
 666 105 l 1
 595 176 l 1
 669 250 l 1
 320 250 l 1
 175 105 l 1
 105 176 l 1
 228 300 l 1
 105 424 l 1
 175 495 l 1
 320 350 l 1
 669 350 l 1
 595 424 l 1
 666 495 l 1
 861 300 l 1
EndSplineSet
EndChar

StartChar: sym036
Encoding: 33 -1 33
Width: 598
Flags: HW
VStem: 249 100<155 504>
LayerCount: 2
Fore
SplineSet
299 696 m 1
 494 501 l 1
 423 430 l 1
 349 504 l 1
 349 155 l 1
 494 10 l 1
 423 -60 l 1
 299 63 l 1
 175 -60 l 1
 105 10 l 1
 249 155 l 1
 249 504 l 1
 175 430 l 1
 105 501 l 1
 299 696 l 1
EndSplineSet
EndChar

StartChar: uni21A2
Encoding: 34 8610 34
Width: 930
Flags: HW
HStem: 250 100<261 610>
LayerCount: 2
Fore
SplineSet
69 300 m 1
 264 495 l 1
 335 424 l 1
 261 350 l 1
 610 350 l 1
 755 495 l 1
 825 424 l 1
 702 300 l 1
 825 176 l 1
 755 105 l 1
 610 250 l 1
 261 250 l 1
 335 176 l 1
 264 105 l 1
 69 300 l 1
EndSplineSet
EndChar

StartChar: sym037
Encoding: 35 -1 35
Width: 598
Flags: HW
VStem: 249 100<96 445>
LayerCount: 2
Fore
SplineSet
299 -96 m 1
 105 99 l 1
 175 170 l 1
 249 96 l 1
 249 445 l 1
 105 590 l 1
 175 660 l 1
 299 537 l 1
 423 660 l 1
 494 590 l 1
 349 445 l 1
 349 96 l 1
 423 170 l 1
 494 99 l 1
 299 -96 l 1
EndSplineSet
EndChar

StartChar: sym039
Encoding: 36 -1 36
Width: 1006
Flags: HW
HStem: 133 100<161 336> 480 100<508 613>
VStem: 336 100<-42 133> 683 100<305 409>
LayerCount: 2
Fore
SplineSet
783 580 m 1
 783 305 l 1
 683 305 l 1
 683 409 l 1
 436 162 l 1
 436 -42 l 1
 336 -42 l 1
 336 133 l 1
 161 133 l 1
 161 233 l 1
 366 233 l 1
 613 480 l 1
 508 480 l 1
 508 580 l 1
 783 580 l 1
EndSplineSet
EndChar

StartChar: sym038
Encoding: 37 -1 37
Width: 1006
Flags: HW
HStem: 133 100<670 845> 480 100<394 498>
VStem: 223 100<305 409> 570 100<-42 133>
LayerCount: 2
Fore
SplineSet
223 580 m 1
 498 580 l 1
 498 480 l 1
 394 480 l 1
 641 233 l 1
 845 233 l 1
 845 133 l 1
 670 133 l 1
 670 -42 l 1
 570 -42 l 1
 570 162 l 1
 323 409 l 1
 323 305 l 1
 223 305 l 1
 223 580 l 1
EndSplineSet
EndChar

StartChar: sym03B
Encoding: 38 -1 38
Width: 1006
Flags: HW
HStem: 20 100<394 498> 367 100<670 845>
VStem: 223 100<191 295> 570 100<467 642>
LayerCount: 2
Fore
SplineSet
223 20 m 1
 223 295 l 1
 323 295 l 1
 323 191 l 1
 570 438 l 1
 570 642 l 1
 670 642 l 1
 670 467 l 1
 845 467 l 1
 845 367 l 1
 641 367 l 1
 394 120 l 1
 498 120 l 1
 498 20 l 1
 223 20 l 1
EndSplineSet
EndChar

StartChar: sym03A
Encoding: 39 -1 39
Width: 1006
Flags: HW
HStem: 20 100<508 613> 367 100<161 336>
VStem: 336 100<467 642> 683 100<191 295>
LayerCount: 2
Fore
SplineSet
783 20 m 1
 508 20 l 1
 508 120 l 1
 613 120 l 1
 366 367 l 1
 161 367 l 1
 161 467 l 1
 336 467 l 1
 336 642 l 1
 436 642 l 1
 436 438 l 1
 683 191 l 1
 683 295 l 1
 783 295 l 1
 783 20 l 1
EndSplineSet
EndChar

StartChar: uni21A6
Encoding: 40 8614 40
Width: 930
Flags: HW
HStem: 250 100<190 669>
VStem: 90 100<91 250 350 509>
LayerCount: 2
Fore
SplineSet
861 300 m 1
 666 105 l 1
 595 176 l 1
 669 250 l 1
 190 250 l 1
 190 91 l 1
 90 91 l 1
 90 509 l 1
 190 509 l 1
 190 350 l 1
 669 350 l 1
 595 424 l 1
 666 495 l 1
 861 300 l 1
EndSplineSet
EndChar

StartChar: uni21A5
Encoding: 41 8613 41
Width: 598
Flags: HW
HStem: -75 100<90 249 349 508>
VStem: 249 100<25 504>
LayerCount: 2
Fore
SplineSet
299 696 m 1
 494 501 l 1
 423 430 l 1
 349 504 l 1
 349 25 l 1
 508 25 l 1
 508 -75 l 1
 90 -75 l 1
 90 25 l 1
 249 25 l 1
 249 504 l 1
 175 430 l 1
 105 501 l 1
 299 696 l 1
EndSplineSet
EndChar

StartChar: uni21A4
Encoding: 42 8612 42
Width: 930
Flags: HW
HStem: 250 100<261 740>
VStem: 740 100<91 250 350 509>
LayerCount: 2
Fore
SplineSet
69 300 m 1
 264 495 l 1
 335 424 l 1
 261 350 l 1
 740 350 l 1
 740 509 l 1
 840 509 l 1
 840 91 l 1
 740 91 l 1
 740 250 l 1
 261 250 l 1
 335 176 l 1
 264 105 l 1
 69 300 l 1
EndSplineSet
EndChar

StartChar: uni21A7
Encoding: 43 8615 43
Width: 598
Flags: HW
HStem: 575 100<90 249 349 508>
VStem: 249 100<96 575>
LayerCount: 2
Fore
SplineSet
299 -96 m 1
 105 99 l 1
 175 170 l 1
 249 96 l 1
 249 575 l 1
 90 575 l 1
 90 675 l 1
 508 675 l 1
 508 575 l 1
 349 575 l 1
 349 96 l 1
 423 170 l 1
 494 99 l 1
 299 -96 l 1
EndSplineSet
EndChar

StartChar: uni2907
Encoding: 44 10503 44
Width: 1080
Flags: HW
HStem: 150 100<190 721> 350 100<190 721> 537 20G<90 190>
VStem: 90 100<43 150 250 350 450 557>
LayerCount: 2
Fore
SplineSet
190 350 m 1
 190 250 l 1
 820 251 l 1
 869 300 l 1
 820 349 l 1
 190 350 l 1
1011 300 m 1
 768 58 l 1
 698 128 l 1
 721 151 l 1
 190 150 l 1
 190 43 l 1
 90 43 l 1
 90 557 l 1
 190 557 l 1
 190 450 l 1
 721 449 l 1
 698 472 l 1
 768 542 l 1
 1011 300 l 1
EndSplineSet
EndChar

StartChar: sym03C
Encoding: 45 -1 45
Width: 694
Flags: HW
HStem: -150 100<90 197 297 396 496 604>
VStem: 197 100<-50 480> 396 100<-50 481>
LayerCount: 2
Fore
SplineSet
297 -50 m 1
 396 -50 l 1
 396 580 l 1
 347 629 l 1
 297 579 l 1
 297 -50 l 1
347 771 m 1
 589 528 l 1
 519 458 l 1
 496 481 l 1
 496 -50 l 1
 604 -50 l 1
 604 -150 l 1
 90 -150 l 1
 90 -50 l 1
 197 -50 l 1
 197 480 l 1
 175 458 l 1
 105 528 l 1
 347 771 l 1
EndSplineSet
EndChar

StartChar: uni2906
Encoding: 46 10502 46
Width: 1080
Flags: HW
HStem: 151 100<359 890> 349 100<359 890> 537 20G<890 990>
VStem: 890 100<43 150 250 350 450 557>
LayerCount: 2
Fore
SplineSet
890 250 m 1
 890 350 l 1
 260 349 l 1
 211 300 l 1
 260 251 l 1
 890 250 l 1
69 300 m 1
 312 542 l 1
 382 472 l 1
 359 449 l 1
 890 450 l 1
 890 557 l 1
 990 557 l 1
 990 43 l 1
 890 43 l 1
 890 150 l 1
 359 151 l 1
 382 128 l 1
 312 58 l 1
 69 300 l 1
EndSplineSet
EndChar

StartChar: sym03D
Encoding: 47 -1 47
Width: 694
Flags: HW
HStem: 650 100<90 197 297 396 496 604>
VStem: 197 100<120 650> 396 100<119 650>
LayerCount: 2
Fore
SplineSet
396 650 m 1
 297 650 l 1
 297 21 l 1
 347 -29 l 1
 396 20 l 1
 396 650 l 1
347 -171 m 1
 105 72 l 1
 175 142 l 1
 197 120 l 1
 197 650 l 1
 90 650 l 1
 90 750 l 1
 604 750 l 1
 604 650 l 1
 496 650 l 1
 496 119 l 1
 519 142 l 1
 589 72 l 1
 347 -171 l 1
EndSplineSet
EndChar

StartChar: uni21AA
Encoding: 48 8618 48
Width: 930
Flags: HW
HStem: 250 100<193.742 669> 409 100<193.742 270>
VStem: 90 100<352.424 406.913>
LayerCount: 2
Fore
SplineSet
270 409 m 1
 220 409 l 2
 203 409 190 396 190 380 c 0
 190 363 203 350 220 350 c 2
 669 350 l 1
 595 424 l 1
 666 495 l 1
 861 300 l 1
 666 105 l 1
 595 176 l 1
 669 250 l 1
 220 250 l 2
 148 250 90 308 90 380 c 0
 90 451 148 509 220 509 c 2
 270 509 l 1
 270 409 l 1
EndSplineSet
EndChar

StartChar: sym03E
Encoding: 49 -1 49
Width: 598
Flags: HW
HStem: -75 100<192.424 246.913>
VStem: 90 100<28.7422 105> 249 100<28.7422 504>
LayerCount: 2
Fore
SplineSet
190 105 m 1
 190 55 l 2
 190 38 203 25 220 25 c 0
 236 25 249 38 249 55 c 2
 249 504 l 1
 175 430 l 1
 105 501 l 1
 299 696 l 1
 494 501 l 1
 423 430 l 1
 349 504 l 1
 349 55 l 2
 349 -17 291 -75 220 -75 c 0
 148 -75 90 -17 90 55 c 2
 90 105 l 1
 190 105 l 1
EndSplineSet
EndChar

StartChar: uni21A9.alt
Encoding: 50 -1 50
Width: 930
Flags: HW
HStem: 91 100<660 736.258> 250 100<261 736.258>
VStem: 740 100<193.087 247.576>
LayerCount: 2
Fore
SplineSet
660 191 m 1
 710 191 l 2
 727 191 740 204 740 220 c 0
 740 237 727 250 710 250 c 2
 261 250 l 1
 335 176 l 1
 264 105 l 1
 69 300 l 1
 264 495 l 1
 335 424 l 1
 261 350 l 1
 710 350 l 2
 782 350 840 292 840 220 c 0
 840 149 782 91 710 91 c 2
 660 91 l 1
 660 191 l 1
EndSplineSet
EndChar

StartChar: sym03F.alt
Encoding: 51 -1 51
Width: 598
Flags: HW
HStem: 575 100<351.424 405.913>
VStem: 249 100<96 571.258> 408 100<495 571.258>
LayerCount: 2
Fore
SplineSet
408 495 m 1
 408 545 l 2
 408 562 395 575 379 575 c 0
 362 575 349 562 349 545 c 2
 349 96 l 1
 423 170 l 1
 494 99 l 1
 299 -96 l 1
 105 99 l 1
 175 170 l 1
 249 96 l 1
 249 545 l 2
 249 617 307 675 379 675 c 0
 450 675 508 617 508 545 c 2
 508 495 l 1
 408 495 l 1
EndSplineSet
EndChar

StartChar: uni2924.alt
Encoding: 52 -1 52
Width: 1006
Flags: HW
HStem: 54 99<245.836 305.358> 480 100<508 613>
VStem: 144 100<154.144 216.916> 683 100<305 409>
LayerCount: 2
Fore
SplineSet
273 54 m 0
 200 54 144 113 144 183 c 0
 144 216 156 249 182 274 c 2
 217 310 l 1
 288 239 l 1
 252 204 l 2
 246 198 244 191 244 183 c 0
 244 165 258 153 273 153 c 0
 281 153 288 156 294 162 c 2
 613 480 l 1
 508 480 l 1
 508 580 l 1
 783 580 l 1
 783 305 l 1
 683 305 l 1
 683 409 l 1
 365 91 l 2
 339 66 306 54 273 54 c 0
EndSplineSet
EndChar

StartChar: uni2923
Encoding: 53 10531 53
Width: 1006
Flags: HW
HStem: -59 100<586.084 648.883> 480 100<394 498>
VStem: 223 100<305 409> 650 100<42.9799 102.342>
LayerCount: 2
Fore
SplineSet
750 70 m 0
 750 -2 690 -59 620 -59 c 0
 587 -59 554 -47 529 -21 c 2
 493 14 l 1
 564 85 l 1
 599 49 l 2
 605 43 612 41 620 41 c 0
 638 41 650 55 650 70 c 0
 650 78 647 85 641 91 c 2
 323 409 l 1
 323 305 l 1
 223 305 l 1
 223 580 l 1
 498 580 l 1
 498 480 l 1
 394 480 l 1
 712 162 l 2
 738 136 750 103 750 70 c 0
EndSplineSet
EndChar

StartChar: uni2926.alt
Encoding: 54 -1 54
Width: 1006
Flags: HW
HStem: 20 100<394 498> 447 99<700.658 759.983>
VStem: 223 100<191 295> 762 100<383.084 444.591>
LayerCount: 2
Fore
SplineSet
733 546 m 0
 805 546 862 489 862 417 c 0
 862 384 850 351 825 326 c 2
 789 290 l 1
 718 361 l 1
 754 396 l 2
 760 402 762 409 762 417 c 0
 762 435 747 447 733 447 c 0
 725 447 718 444 712 438 c 2
 394 120 l 1
 498 120 l 1
 498 20 l 1
 223 20 l 1
 223 295 l 1
 323 295 l 1
 323 191 l 1
 641 509 l 2
 667 534 700 546 733 546 c 0
EndSplineSet
EndChar

StartChar: uni2925
Encoding: 55 10533 55
Width: 1006
Flags: HW
HStem: 20 100<508 613> 559 100<357.117 419.916>
VStem: 256 100<497.658 557.164> 683 100<191 295>
LayerCount: 2
Fore
SplineSet
256 530 m 0
 256 603 316 659 386 659 c 0
 419 659 452 647 477 621 c 2
 513 586 l 1
 442 515 l 1
 407 551 l 2
 401 557 394 559 386 559 c 0
 368 559 356 545 356 530 c 0
 356 522 359 515 365 509 c 2
 683 191 l 1
 683 295 l 1
 783 295 l 1
 783 20 l 1
 508 20 l 1
 508 120 l 1
 613 120 l 1
 294 438 l 2
 269 464 256 497 256 530 c 0
EndSplineSet
EndChar

StartChar: uni21AA.alt
Encoding: 56 -1 56
Width: 930
Flags: HW
HStem: 91 100<193.742 270> 250 100<193.742 669>
VStem: 90 100<193.087 247.576>
LayerCount: 2
Fore
SplineSet
270 91 m 1
 220 91 l 2
 148 91 90 149 90 220 c 0
 90 292 148 350 220 350 c 2
 669 350 l 1
 595 424 l 1
 666 495 l 1
 861 300 l 1
 666 105 l 1
 595 176 l 1
 669 250 l 1
 220 250 l 2
 203 250 190 237 190 220 c 0
 190 204 203 191 220 191 c 2
 270 191 l 1
 270 91 l 1
EndSplineSet
EndChar

StartChar: sym03E.alt
Encoding: 57 -1 57
Width: 598
Flags: HW
HStem: -75 100<351.424 405.913>
VStem: 249 100<28.7422 504> 408 100<28.7422 105>
LayerCount: 2
Fore
SplineSet
508 105 m 1
 508 55 l 2
 508 -17 450 -75 379 -75 c 0
 307 -75 249 -17 249 55 c 2
 249 504 l 1
 175 430 l 1
 105 501 l 1
 299 696 l 1
 494 501 l 1
 423 430 l 1
 349 504 l 1
 349 55 l 2
 349 38 362 25 379 25 c 0
 395 25 408 38 408 55 c 2
 408 105 l 1
 508 105 l 1
EndSplineSet
EndChar

StartChar: uni21A9
Encoding: 58 8617 58
Width: 930
Flags: HW
HStem: 250 100<261 736.258> 409 100<660 736.258>
VStem: 740 100<352.424 406.913>
LayerCount: 2
Fore
SplineSet
660 509 m 1
 710 509 l 2
 782 509 840 451 840 380 c 0
 840 308 782 250 710 250 c 2
 261 250 l 1
 335 176 l 1
 264 105 l 1
 69 300 l 1
 264 495 l 1
 335 424 l 1
 261 350 l 1
 710 350 l 2
 727 350 740 363 740 380 c 0
 740 396 727 409 710 409 c 2
 660 409 l 1
 660 509 l 1
EndSplineSet
EndChar

StartChar: sym03F
Encoding: 59 -1 59
Width: 598
Flags: HW
HStem: 575 100<192.424 246.913>
VStem: 90 100<495 571.258> 249 100<96 571.258>
LayerCount: 2
Fore
SplineSet
90 495 m 1
 90 545 l 2
 90 617 148 675 220 675 c 0
 291 675 349 617 349 545 c 2
 349 96 l 1
 423 170 l 1
 494 99 l 1
 299 -96 l 1
 105 99 l 1
 175 170 l 1
 249 96 l 1
 249 545 l 2
 249 562 236 575 220 575 c 0
 203 575 190 562 190 545 c 2
 190 495 l 1
 90 495 l 1
EndSplineSet
EndChar

StartChar: uni2924
Encoding: 60 10532 60
Width: 1006
Flags: HW
HStem: -59 100<357.117 419.916> 480 100<508 613>
VStem: 256 100<42.8364 102.342> 683 100<305 409>
LayerCount: 2
Fore
SplineSet
356 70 m 0
 356 55 368 41 386 41 c 0
 394 41 401 43 407 49 c 2
 442 85 l 1
 513 14 l 1
 477 -21 l 2
 452 -47 419 -59 386 -59 c 0
 316 -59 256 -3 256 70 c 0
 256 103 269 136 294 162 c 2
 613 480 l 1
 508 480 l 1
 508 580 l 1
 783 580 l 1
 783 305 l 1
 683 305 l 1
 683 409 l 1
 365 91 l 2
 359 85 356 78 356 70 c 0
EndSplineSet
EndChar

StartChar: uni2923.alt
Encoding: 61 -1 61
Width: 1006
Flags: HW
HStem: 54 99<700.658 759.983> 480 100<394 498>
VStem: 223 100<305 409> 762 100<155.409 216.916>
LayerCount: 2
Fore
SplineSet
733 153 m 0
 747 153 762 165 762 183 c 0
 762 191 760 198 754 204 c 2
 718 239 l 1
 789 310 l 1
 825 274 l 2
 850 249 862 216 862 183 c 0
 862 111 805 54 733 54 c 0
 700 54 667 66 641 91 c 2
 323 409 l 1
 323 305 l 1
 223 305 l 1
 223 580 l 1
 498 580 l 1
 498 480 l 1
 394 480 l 1
 712 162 l 2
 718 156 725 153 733 153 c 0
EndSplineSet
EndChar

StartChar: uni2926
Encoding: 62 10534 62
Width: 1006
Flags: HW
HStem: 20 100<394 498> 559 100<586.084 648.883>
VStem: 223 100<191 295> 650 100<497.658 557.02>
LayerCount: 2
Fore
SplineSet
650 530 m 0
 650 545 638 559 620 559 c 0
 612 559 605 557 599 551 c 2
 564 515 l 1
 493 586 l 1
 529 621 l 2
 554 647 587 659 620 659 c 0
 690 659 750 602 750 530 c 0
 750 497 738 464 712 438 c 2
 394 120 l 1
 498 120 l 1
 498 20 l 1
 223 20 l 1
 223 295 l 1
 323 295 l 1
 323 191 l 1
 641 509 l 2
 647 515 650 522 650 530 c 0
EndSplineSet
EndChar

StartChar: uni2925.alt
Encoding: 63 -1 63
Width: 1006
Flags: HW
HStem: 20 100<508 613> 447 99<245.836 305.358>
VStem: 144 100<383.084 445.856> 683 100<191 295>
LayerCount: 2
Fore
SplineSet
273 447 m 0
 258 447 244 435 244 417 c 0
 244 409 246 402 252 396 c 2
 288 361 l 1
 217 290 l 1
 182 326 l 2
 156 351 144 384 144 417 c 0
 144 487 200 546 273 546 c 0
 306 546 339 534 365 509 c 2
 683 191 l 1
 683 295 l 1
 783 295 l 1
 783 20 l 1
 508 20 l 1
 508 120 l 1
 613 120 l 1
 294 438 l 2
 288 444 281 447 273 447 c 0
EndSplineSet
EndChar

StartChar: uni21C0
Encoding: 64 8640 64
Width: 930
Flags: HW
HStem: 250 100<90 669>
LayerCount: 2
Fore
SplineSet
861 300 m 1
 847 250 l 1
 90 250 l 1
 90 350 l 1
 669 350 l 1
 570 449 l 1
 641 520 l 1
 861 300 l 1
EndSplineSet
EndChar

StartChar: uni21BF
Encoding: 65 8639 65
Width: 598
Flags: HW
VStem: 249 100<-75 504>
LayerCount: 2
Fore
SplineSet
299 696 m 1
 349 682 l 1
 349 -75 l 1
 249 -75 l 1
 249 504 l 1
 150 405 l 1
 80 476 l 1
 299 696 l 1
EndSplineSet
EndChar

StartChar: uni21BD
Encoding: 66 8637 66
Width: 930
Flags: HW
HStem: 250 100<261 840>
LayerCount: 2
Fore
SplineSet
69 300 m 1
 83 350 l 1
 840 350 l 1
 840 250 l 1
 261 250 l 1
 360 151 l 1
 289 80 l 1
 69 300 l 1
EndSplineSet
EndChar

StartChar: uni21C2
Encoding: 67 8642 67
Width: 598
Flags: HW
VStem: 249 100<96 675>
LayerCount: 2
Fore
SplineSet
299 -96 m 1
 249 -82 l 1
 249 675 l 1
 349 675 l 1
 349 96 l 1
 448 195 l 1
 519 124 l 1
 299 -96 l 1
EndSplineSet
EndChar

StartChar: sym041
Encoding: 68 -1 68
Width: 1006
Flags: HW
HStem: -1 21G<253.282 293> 480 100<472 613>
LayerCount: 2
Fore
SplineSet
783 580 m 1
 809 535 l 1
 273 -1 l 1
 203 70 l 1
 613 480 l 1
 472 480 l 1
 472 580 l 1
 783 580 l 1
EndSplineSet
EndChar

StartChar: sym040
Encoding: 69 -1 69
Width: 1006
Flags: HW
HStem: -1 21G<713 753>
VStem: 223 100<269 409>
LayerCount: 2
Fore
SplineSet
223 580 m 1
 268 606 l 1
 804 70 l 1
 733 -1 l 1
 323 409 l 1
 323 269 l 1
 223 269 l 1
 223 580 l 1
EndSplineSet
EndChar

StartChar: sym043
Encoding: 70 -1 70
Width: 1006
Flags: HW
HStem: 20 100<394 534>
LayerCount: 2
Fore
SplineSet
223 20 m 1
 197 65 l 1
 238 106 l 1
 733 601 l 1
 804 530 l 1
 394 120 l 1
 534 120 l 1
 534 20 l 1
 223 20 l 1
EndSplineSet
EndChar

StartChar: sym042
Encoding: 71 -1 71
Width: 1006
Flags: HW
HStem: -6 21G<718 772.615>
VStem: 683 100<49 50 191 331>
LayerCount: 2
Fore
SplineSet
783 20 m 1
 738 -6 l 1
 683 49 l 1
 683 50 l 1
 203 530 l 1
 273 601 l 1
 683 191 l 1
 683 331 l 1
 783 331 l 1
 783 20 l 1
EndSplineSet
EndChar

StartChar: uni21C1
Encoding: 72 8641 72
Width: 930
Flags: HW
HStem: 250 100<90 669>
LayerCount: 2
Fore
SplineSet
861 300 m 1
 641 80 l 1
 570 151 l 1
 669 250 l 1
 90 250 l 1
 90 350 l 1
 847 350 l 1
 861 300 l 1
EndSplineSet
EndChar

StartChar: uni21BE
Encoding: 73 8638 73
Width: 598
Flags: HW
VStem: 249 100<-75 504>
LayerCount: 2
Fore
SplineSet
299 696 m 1
 519 476 l 1
 448 405 l 1
 349 504 l 1
 349 -75 l 1
 249 -75 l 1
 249 682 l 1
 299 696 l 1
EndSplineSet
EndChar

StartChar: uni21BC
Encoding: 74 8636 74
Width: 930
Flags: HW
HStem: 250 100<261 840>
LayerCount: 2
Fore
SplineSet
69 300 m 1
 289 520 l 1
 360 449 l 1
 261 350 l 1
 840 350 l 1
 840 250 l 1
 83 250 l 1
 69 300 l 1
EndSplineSet
EndChar

StartChar: uni21C3
Encoding: 75 8643 75
Width: 598
Flags: HW
VStem: 249 100<96 675>
LayerCount: 2
Fore
SplineSet
299 -96 m 1
 80 124 l 1
 150 195 l 1
 249 96 l 1
 249 675 l 1
 349 675 l 1
 349 -82 l 1
 299 -96 l 1
EndSplineSet
EndChar

StartChar: sym045
Encoding: 76 -1 76
Width: 1006
Flags: HW
HStem: -1 21G<253.282 293>
VStem: 683 100<269 409 550 551>
LayerCount: 2
Fore
SplineSet
783 580 m 1
 783 269 l 1
 683 269 l 1
 683 409 l 1
 273 -1 l 1
 203 70 l 1
 683 550 l 1
 683 551 l 1
 738 606 l 1
 783 580 l 1
EndSplineSet
EndChar

StartChar: sym044
Encoding: 77 -1 77
Width: 1006
Flags: HW
HStem: -1 21G<713 753> 480 100<394 534>
LayerCount: 2
Fore
SplineSet
223 580 m 1
 534 580 l 1
 534 480 l 1
 394 480 l 1
 804 70 l 1
 733 -1 l 1
 238 494 l 1
 197 535 l 1
 223 580 l 1
EndSplineSet
EndChar

StartChar: sym047
Encoding: 78 -1 78
Width: 1006
Flags: HW
HStem: -6 21G<233.385 288>
VStem: 223 100<191 331>
LayerCount: 2
Fore
SplineSet
223 20 m 1
 223 331 l 1
 323 331 l 1
 323 191 l 1
 733 601 l 1
 804 530 l 1
 268 -6 l 1
 223 20 l 1
EndSplineSet
EndChar

StartChar: sym046
Encoding: 79 -1 79
Width: 1006
Flags: HW
HStem: 20 100<472 613>
LayerCount: 2
Fore
SplineSet
783 20 m 1
 472 20 l 1
 472 120 l 1
 613 120 l 1
 203 530 l 1
 273 601 l 1
 809 65 l 1
 783 20 l 1
EndSplineSet
EndChar

StartChar: uni294B
Encoding: 80 10571 80
Width: 930
Flags: HW
HStem: 250 100<261 669>
LayerCount: 2
Fore
SplineSet
69 300 m 1
 83 350 l 1
 669 350 l 1
 570 449 l 1
 641 520 l 1
 861 300 l 1
 847 250 l 1
 261 250 l 1
 360 151 l 1
 289 80 l 1
 69 300 l 1
EndSplineSet
EndChar

StartChar: uni294D
Encoding: 81 10573 81
Width: 598
Flags: HW
VStem: 249 100<96 504>
LayerCount: 2
Fore
SplineSet
299 -96 m 1
 249 -82 l 1
 249 504 l 1
 150 405 l 1
 80 476 l 1
 299 696 l 1
 349 682 l 1
 349 96 l 1
 448 195 l 1
 519 124 l 1
 299 -96 l 1
EndSplineSet
EndChar

StartChar: sym049
Encoding: 82 -1 82
Width: 1006
Flags: HW
HStem: 20 100<394 534> 480 100<472 613>
LayerCount: 2
Fore
SplineSet
223 20 m 1
 197 65 l 1
 238 106 l 1
 613 480 l 1
 472 480 l 1
 472 580 l 1
 783 580 l 1
 809 535 l 1
 394 120 l 1
 534 120 l 1
 534 20 l 1
 223 20 l 1
EndSplineSet
EndChar

StartChar: sym048
Encoding: 83 -1 83
Width: 1006
Flags: HW
HStem: -6 21G<718 772.615>
VStem: 223 100<269 409> 683 100<49 50 191 331>
LayerCount: 2
Fore
SplineSet
783 20 m 1
 738 -6 l 1
 683 49 l 1
 683 50 l 1
 323 409 l 1
 323 269 l 1
 223 269 l 1
 223 580 l 1
 268 606 l 1
 683 191 l 1
 683 331 l 1
 783 331 l 1
 783 20 l 1
EndSplineSet
EndChar

StartChar: uni294A
Encoding: 84 10570 84
Width: 930
Flags: HW
HStem: 250 100<261 669>
LayerCount: 2
Fore
SplineSet
69 300 m 1
 289 520 l 1
 360 449 l 1
 261 350 l 1
 847 350 l 1
 861 300 l 1
 641 80 l 1
 570 151 l 1
 669 250 l 1
 83 250 l 1
 69 300 l 1
EndSplineSet
EndChar

StartChar: uni294C
Encoding: 85 10572 85
Width: 598
Flags: HW
VStem: 249 100<96 504>
LayerCount: 2
Fore
SplineSet
299 -96 m 1
 80 124 l 1
 150 195 l 1
 249 96 l 1
 249 682 l 1
 299 696 l 1
 519 476 l 1
 448 405 l 1
 349 504 l 1
 349 -82 l 1
 299 -96 l 1
EndSplineSet
EndChar

StartChar: sym04B
Encoding: 86 -1 86
Width: 1006
Flags: HW
HStem: -6 21G<233.385 288>
VStem: 223 100<191 331> 683 100<269 409 550 551>
LayerCount: 2
Fore
SplineSet
223 20 m 1
 223 331 l 1
 323 331 l 1
 323 191 l 1
 683 550 l 1
 683 551 l 1
 738 606 l 1
 783 580 l 1
 783 269 l 1
 683 269 l 1
 683 409 l 1
 268 -6 l 1
 223 20 l 1
EndSplineSet
EndChar

StartChar: sym04A
Encoding: 87 -1 87
Width: 1006
Flags: HW
HStem: 20 100<472 613> 480 100<394 534>
LayerCount: 2
Fore
SplineSet
783 20 m 1
 472 20 l 1
 472 120 l 1
 613 120 l 1
 238 494 l 1
 197 535 l 1
 223 580 l 1
 534 580 l 1
 534 480 l 1
 394 480 l 1
 809 65 l 1
 783 20 l 1
EndSplineSet
EndChar

StartChar: uni21CC
Encoding: 88 8652 88
Width: 930
Flags: HW
HStem: 150 100<262 840> 350 100<90 668>
LayerCount: 2
Fore
SplineSet
861 400 m 1
 847 350 l 1
 90 350 l 1
 90 450 l 1
 668 450 l 1
 570 548 l 1
 641 619 l 1
 861 400 l 1
69 200 m 1
 83 250 l 1
 840 250 l 1
 840 150 l 1
 262 150 l 1
 360 52 l 1
 289 -19 l 1
 69 200 l 1
EndSplineSet
EndChar

StartChar: uni296E
Encoding: 89 10606 89
Width: 797
Flags: HW
VStem: 249 100<-75 504> 448 100<96 675>
LayerCount: 2
Fore
SplineSet
299 696 m 1
 349 682 l 1
 349 -75 l 1
 249 -75 l 1
 249 504 l 1
 150 405 l 1
 80 476 l 1
 299 696 l 1
498 -96 m 1
 448 -82 l 1
 448 675 l 1
 548 675 l 1
 548 96 l 1
 647 195 l 1
 718 124 l 1
 498 -96 l 1
EndSplineSet
EndChar

StartChar: sym04D
Encoding: 90 -1 90
Width: 1147
Flags: HW
HStem: -50 100<393 394 535 674> 550 100<472 612 753 754>
LayerCount: 2
Fore
SplineSet
783 650 m 1
 809 605 l 1
 754 550 l 1
 753 550 l 1
 273 70 l 1
 203 141 l 1
 612 550 l 1
 472 550 l 1
 472 650 l 1
 783 650 l 1
364 -50 m 1
 338 -5 l 1
 393 50 l 1
 394 50 l 1
 874 530 l 1
 944 459 l 1
 535 50 l 1
 674 50 l 1
 674 -50 l 1
 364 -50 l 1
EndSplineSet
EndChar

StartChar: sym04C
Encoding: 91 -1 91
Width: 1147
Flags: HW
VStem: 223 100<199 339> 824 100<261 401>
LayerCount: 2
Fore
SplineSet
223 509 m 1
 268 535 l 1
 308 494 l 1
 309 495 l 1
 804 0 l 1
 733 -71 l 1
 323 339 l 1
 323 199 l 1
 223 199 l 1
 223 509 l 1
924 91 m 1
 879 65 l 1
 838 106 l 1
 838 105 l 1
 343 600 l 1
 414 671 l 1
 824 261 l 1
 824 401 l 1
 924 401 l 1
 924 91 l 1
EndSplineSet
EndChar

StartChar: uni21CB
Encoding: 92 8651 92
Width: 930
Flags: HW
HStem: 150 100<90 668> 350 100<262 840>
LayerCount: 2
Fore
SplineSet
861 200 m 1
 641 -19 l 1
 570 52 l 1
 668 150 l 1
 90 150 l 1
 90 250 l 1
 847 250 l 1
 861 200 l 1
69 400 m 1
 289 619 l 1
 360 548 l 1
 262 450 l 1
 840 450 l 1
 840 350 l 1
 83 350 l 1
 69 400 l 1
EndSplineSet
EndChar

StartChar: uni296F
Encoding: 93 10607 93
Width: 797
Flags: HW
VStem: 249 100<96 675> 448 100<-75 504>
LayerCount: 2
Fore
SplineSet
498 696 m 1
 718 476 l 1
 647 405 l 1
 548 504 l 1
 548 -75 l 1
 448 -75 l 1
 448 682 l 1
 498 696 l 1
299 -96 m 1
 80 124 l 1
 150 195 l 1
 249 96 l 1
 249 675 l 1
 349 675 l 1
 349 -82 l 1
 299 -96 l 1
EndSplineSet
EndChar

StartChar: sym04F
Encoding: 94 -1 94
Width: 1147
Flags: HW
VStem: 223 100<261 401> 824 100<199 339>
LayerCount: 2
Fore
SplineSet
924 509 m 1
 924 199 l 1
 824 199 l 1
 824 339 l 1
 414 -71 l 1
 343 0 l 1
 838 495 l 1
 838 494 l 1
 879 535 l 1
 924 509 l 1
223 91 m 1
 223 401 l 1
 323 401 l 1
 323 261 l 1
 733 671 l 1
 804 600 l 1
 309 105 l 1
 308 106 l 1
 268 65 l 1
 223 91 l 1
EndSplineSet
EndChar

StartChar: sym04E
Encoding: 95 -1 95
Width: 1147
Flags: HW
HStem: -50 100<472 612 753 754> 550 100<393 394 535 674>
LayerCount: 2
Fore
SplineSet
364 650 m 1
 674 650 l 1
 674 550 l 1
 535 550 l 1
 944 141 l 1
 874 70 l 1
 394 550 l 1
 393 550 l 1
 338 605 l 1
 364 650 l 1
783 -50 m 1
 472 -50 l 1
 472 50 l 1
 612 50 l 1
 203 459 l 1
 273 530 l 1
 753 50 l 1
 754 50 l 1
 809 -5 l 1
 783 -50 l 1
EndSplineSet
EndChar

StartChar: uni21E2
Encoding: 96 8674 96
Width: 930
Flags: HW
HStem: 250 100<90 335 498 669>
LayerCount: 2
Fore
SplineSet
90 250 m 1
 90 350 l 1
 335 350 l 1
 335 250 l 1
 90 250 l 1
861 300 m 1
 666 105 l 1
 595 176 l 1
 669 250 l 1
 498 250 l 1
 498 350 l 1
 669 350 l 1
 595 424 l 1
 666 495 l 1
 861 300 l 1
EndSplineSet
EndChar

StartChar: uni21E1
Encoding: 97 8673 97
Width: 598
Flags: HW
VStem: 249 100<-75 170 333 504>
LayerCount: 2
Fore
SplineSet
349 -75 m 1
 249 -75 l 1
 249 170 l 1
 349 170 l 1
 349 -75 l 1
299 696 m 1
 494 501 l 1
 423 430 l 1
 349 504 l 1
 349 333 l 1
 249 333 l 1
 249 504 l 1
 175 430 l 1
 105 501 l 1
 299 696 l 1
EndSplineSet
EndChar

StartChar: uni21E0
Encoding: 98 8672 98
Width: 930
Flags: HW
HStem: 250 100<261 433 595 840>
LayerCount: 2
Fore
SplineSet
840 350 m 1
 840 250 l 1
 595 250 l 1
 595 350 l 1
 840 350 l 1
69 300 m 1
 264 495 l 1
 335 424 l 1
 261 350 l 1
 433 350 l 1
 433 250 l 1
 261 250 l 1
 335 176 l 1
 264 105 l 1
 69 300 l 1
EndSplineSet
EndChar

StartChar: uni21E3
Encoding: 99 8675 99
Width: 598
Flags: HW
VStem: 249 100<96 267 430 675>
LayerCount: 2
Fore
SplineSet
249 675 m 1
 349 675 l 1
 349 430 l 1
 249 430 l 1
 249 675 l 1
299 -96 m 1
 105 99 l 1
 175 170 l 1
 249 96 l 1
 249 267 l 1
 349 267 l 1
 349 96 l 1
 423 170 l 1
 494 99 l 1
 299 -96 l 1
EndSplineSet
EndChar

StartChar: sym051
Encoding: 100 -1 100
Width: 1006
Flags: HW
HStem: -1 21G<253.282 293> 480 100<508 613>
VStem: 683 100<305 409>
LayerCount: 2
Fore
SplineSet
273 -1 m 1
 203 70 l 1
 376 243 l 1
 447 173 l 1
 273 -1 l 1
783 580 m 1
 783 305 l 1
 683 305 l 1
 683 409 l 1
 561 288 l 1
 491 358 l 1
 613 480 l 1
 508 480 l 1
 508 580 l 1
 783 580 l 1
EndSplineSet
EndChar

StartChar: sym050
Encoding: 101 -1 101
Width: 1006
Flags: HW
HStem: -1 21G<713.115 753> 480 100<394 498>
VStem: 223 100<305 409>
LayerCount: 2
Fore
SplineSet
804 70 m 1
 733 -1 l 1
 560 173 l 1
 630 243 l 1
 804 70 l 1
223 580 m 1
 498 580 l 1
 498 480 l 1
 394 480 l 1
 515 358 l 1
 445 288 l 1
 323 409 l 1
 323 305 l 1
 223 305 l 1
 223 580 l 1
EndSplineSet
EndChar

StartChar: sym053
Encoding: 102 -1 102
Width: 1006
Flags: HW
HStem: 20 100<394 498>
VStem: 223 100<191 295>
LayerCount: 2
Fore
SplineSet
733 601 m 1
 804 530 l 1
 630 357 l 1
 560 427 l 1
 733 601 l 1
223 20 m 1
 223 295 l 1
 323 295 l 1
 323 191 l 1
 445 312 l 1
 515 242 l 1
 394 120 l 1
 498 120 l 1
 498 20 l 1
 223 20 l 1
EndSplineSet
EndChar

StartChar: sym052
Encoding: 103 -1 103
Width: 1006
Flags: HW
HStem: 20 100<508 613>
VStem: 683 100<191 295>
LayerCount: 2
Fore
SplineSet
203 530 m 1
 273 601 l 1
 447 427 l 1
 376 357 l 1
 203 530 l 1
783 20 m 1
 508 20 l 1
 508 120 l 1
 613 120 l 1
 491 242 l 1
 561 312 l 1
 683 191 l 1
 683 295 l 1
 783 295 l 1
 783 20 l 1
EndSplineSet
EndChar

StartChar: uni22B8
Encoding: 104 8888 104
Width: 930
Flags: HW
HStem: 123 100<609.585 716.567> 250 100<90 499.047> 377 100<609.585 716.567>
VStem: 740 100<247.718 352.282>
CounterMasks: 1 e0
LayerCount: 2
Fore
SplineSet
663 477 m 0
 765 477 840 393 840 300 c 0
 840 207 765 123 663 123 c 0
 578 123 513 179 492 250 c 1
 90 250 l 1
 90 350 l 1
 492 350 l 1
 513 421 578 477 663 477 c 0
663 223 m 0
 705 223 740 256 740 300 c 0
 740 344 705 377 663 377 c 0
 619 377 585 342 585 300 c 0
 585 258 619 223 663 223 c 0
EndSplineSet
EndChar

StartChar: uni2AEF
Encoding: 105 10991 105
Width: 598
Flags: HW
HStem: 575 100<246.362 351.654>
VStem: 122 100<444.892 551.025> 249 100<-75 334.7> 377 100<445.381 548.812>
LayerCount: 2
Fore
SplineSet
299 675 m 0
 394 675 477 598 477 498 c 0
 477 421 428 350 349 327 c 1
 349 -75 l 1
 249 -75 l 1
 249 327 l 1
 172 350 122 421 122 498 c 0
 122 595 202 675 299 675 c 0
299 420 m 0
 344 420 377 458 377 498 c 0
 377 535 345 575 299 575 c 0
 257 575 222 542 222 498 c 0
 222 452 259 420 299 420 c 0
EndSplineSet
EndChar

StartChar: uni27DC
Encoding: 106 10204 106
Width: 930
Flags: HW
HStem: 123 100<213.433 320.415> 250 100<430.953 840> 377 100<213.433 320.415>
VStem: 90 100<247.718 352.282>
CounterMasks: 1 e0
LayerCount: 2
Fore
SplineSet
267 477 m 0
 352 477 417 421 438 350 c 1
 840 350 l 1
 840 250 l 1
 438 250 l 1
 417 179 352 123 267 123 c 0
 165 123 90 207 90 300 c 0
 90 393 165 477 267 477 c 0
267 223 m 0
 311 223 345 258 345 300 c 0
 345 342 311 377 267 377 c 0
 225 377 190 344 190 300 c 0
 190 256 225 223 267 223 c 0
EndSplineSet
EndChar

StartChar: uni2AF0
Encoding: 107 10992 107
Width: 598
Flags: HW
HStem: -75 100<246.362 351.654>
VStem: 122 100<48.9754 155.108> 249 100<265.3 675> 377 100<51.1875 154.619>
LayerCount: 2
Fore
SplineSet
349 273 m 1
 428 250 477 179 477 102 c 0
 477 2 394 -75 299 -75 c 0
 202 -75 122 5 122 102 c 0
 122 179 172 250 249 273 c 1
 249 675 l 1
 349 675 l 1
 349 273 l 1
299 25 m 0
 345 25 377 65 377 102 c 0
 377 142 344 180 299 180 c 0
 259 180 222 148 222 102 c 0
 222 58 257 25 299 25 c 0
EndSplineSet
EndChar

StartChar: sym054
Encoding: 108 -1 108
Width: 930
Flags: HW
HStem: 123 354<577.078 745.449> 250 100<90 499.047>
LayerCount: 2
Fore
SplineSet
663 477 m 0x80
 765 477 840 393 840 300 c 0
 840 207 765 123 663 123 c 0x80
 578 123 513 179 492 250 c 1
 90 250 l 1
 90 350 l 1
 492 350 l 1x40
 513 421 578 477 663 477 c 0x80
EndSplineSet
EndChar

StartChar: sym056
Encoding: 109 -1 109
Width: 598
Flags: HW
VStem: 122 355<413.016 579.568> 249 100<-75 334.7>
LayerCount: 2
Fore
SplineSet
299 675 m 0x80
 394 675 477 598 477 498 c 0x80
 477 421 428 350 349 327 c 1
 349 -75 l 1
 249 -75 l 1
 249 327 l 1x40
 172 350 122 421 122 498 c 0
 122 595 202 675 299 675 c 0x80
EndSplineSet
EndChar

StartChar: sym055
Encoding: 110 -1 110
Width: 930
Flags: HW
HStem: 123 354<184.551 352.922> 250 100<430.953 840>
LayerCount: 2
Fore
SplineSet
267 477 m 0x80
 352 477 417 421 438 350 c 1
 840 350 l 1
 840 250 l 1
 438 250 l 1x40
 417 179 352 123 267 123 c 0
 165 123 90 207 90 300 c 0
 90 393 165 477 267 477 c 0x80
EndSplineSet
EndChar

StartChar: sym057
Encoding: 111 -1 111
Width: 598
Flags: HW
VStem: 122 355<20.4317 186.984> 249 100<265.3 675>
LayerCount: 2
Fore
SplineSet
349 273 m 1x40
 428 250 477 179 477 102 c 0
 477 2 394 -75 299 -75 c 0
 202 -75 122 5 122 102 c 0x80
 122 179 172 250 249 273 c 1
 249 675 l 1
 349 675 l 1
 349 273 l 1x40
EndSplineSet
EndChar

StartChar: uni29DF
Encoding: 112 10719 112
Width: 1230
Flags: HW
HStem: 123 100<213.433 320.415 909.585 1016.57> 250 100<430.953 799.047> 377 100<213.433 320.415 909.585 1016.57>
VStem: 90 100<247.718 352.282> 1040 100<247.718 352.282>
CounterMasks: 1 e0
LayerCount: 2
Fore
SplineSet
963 477 m 0
 1065 477 1140 393 1140 300 c 0
 1140 207 1065 123 963 123 c 0
 878 123 813 179 792 250 c 1
 438 250 l 1
 417 179 352 123 267 123 c 0
 165 123 90 207 90 300 c 0
 90 393 165 477 267 477 c 0
 352 477 417 421 438 350 c 1
 792 350 l 1
 813 421 878 477 963 477 c 0
963 223 m 0
 1005 223 1040 256 1040 300 c 0
 1040 344 1005 377 963 377 c 0
 919 377 885 342 885 300 c 0
 885 258 919 223 963 223 c 0
267 223 m 0
 311 223 345 258 345 300 c 0
 345 342 311 377 267 377 c 0
 225 377 190 344 190 300 c 0
 190 256 225 223 267 223 c 0
EndSplineSet
EndChar

StartChar: sym058
Encoding: 113 -1 113
Width: 1230
Flags: HW
HStem: 123 354<184.551 352.922 877.078 1045.45> 250 100<430.953 799.047>
LayerCount: 2
Fore
SplineSet
963 477 m 0x80
 1065 477 1140 393 1140 300 c 0
 1140 207 1065 123 963 123 c 0x80
 878 123 813 179 792 250 c 1
 438 250 l 1x40
 417 179 352 123 267 123 c 0
 165 123 90 207 90 300 c 0
 90 393 165 477 267 477 c 0x80
 352 477 417 421 438 350 c 1
 792 350 l 1x40
 813 421 878 477 963 477 c 0x80
EndSplineSet
EndChar

StartChar: uni22B7
Encoding: 114 8887 114
Width: 1230
Flags: HW
HStem: 123 354<184.551 352.922> 123 100<909.585 1016.57> 250 100<430.953 799.047> 377 100<909.585 1016.57>
VStem: 1040 100<247.718 352.282>
LayerCount: 2
Fore
SplineSet
963 477 m 0x38
 1065 477 1140 393 1140 300 c 0
 1140 207 1065 123 963 123 c 0
 878 123 813 179 792 250 c 1
 438 250 l 1x78
 417 179 352 123 267 123 c 0
 165 123 90 207 90 300 c 0
 90 393 165 477 267 477 c 0x88
 352 477 417 421 438 350 c 1
 792 350 l 1
 813 421 878 477 963 477 c 0x38
963 223 m 0
 1005 223 1040 256 1040 300 c 0
 1040 344 1005 377 963 377 c 0
 919 377 885 342 885 300 c 0
 885 258 919 223 963 223 c 0
EndSplineSet
EndChar

StartChar: uni22B6
Encoding: 115 8886 115
Width: 1230
Flags: HW
HStem: 123 354<877.078 1045.45> 123 100<213.433 320.415> 250 100<430.953 799.047> 377 100<213.433 320.415>
VStem: 90 100<247.718 352.282>
LayerCount: 2
Fore
SplineSet
963 477 m 0x88
 1065 477 1140 393 1140 300 c 0
 1140 207 1065 123 963 123 c 0x88
 878 123 813 179 792 250 c 1
 438 250 l 1
 417 179 352 123 267 123 c 0
 165 123 90 207 90 300 c 0
 90 393 165 477 267 477 c 0
 352 477 417 421 438 350 c 1
 792 350 l 1x78
 813 421 878 477 963 477 c 0x88
267 223 m 0x58
 311 223 345 258 345 300 c 0
 345 342 311 377 267 377 c 0
 225 377 190 344 190 300 c 0
 190 256 225 223 267 223 c 0x58
EndSplineSet
EndChar

StartChar: sym05A
Encoding: 116 -1 116
Width: 930
Flags: HW
HStem: 47 100<90 363.48> 250 100<90 409 506.918 840> 453 100<90 363.48>
VStem: 409 102<199.639 250 350 400.361>
CounterMasks: 1 e0
LayerCount: 2
Fore
SplineSet
90 147 m 1
 306 147 l 2
 361 147 396 193 409 250 c 1
 90 250 l 1
 90 350 l 1
 409 350 l 1
 396 407 361 453 306 453 c 2
 90 453 l 1
 90 553 l 1
 306 553 l 2
 414 553 493 461 511 350 c 1
 840 350 l 1
 840 250 l 1
 511 250 l 1
 493 139 414 47 306 47 c 2
 90 47 l 1
 90 147 l 1
EndSplineSet
EndChar

StartChar: uni22D4
Encoding: 117 8916 117
Width: 685
Flags: HW
HStem: 244 102<242.305 293 393 443.296>
VStem: 90 100<-75 198.48> 293 100<-75 244 341.918 675> 495 100<-75 198.48>
LayerCount: 2
Fore
SplineSet
495 -75 m 1
 495 141 l 2
 495 196 450 231 393 244 c 1
 393 -75 l 1
 293 -75 l 1
 293 244 l 1
 236 231 190 196 190 141 c 2
 190 -75 l 1
 90 -75 l 1
 90 141 l 2
 90 249 181 328 293 346 c 1
 293 675 l 1
 393 675 l 1
 393 346 l 1
 504 328 595 249 595 141 c 2
 595 -75 l 1
 495 -75 l 1
EndSplineSet
EndChar

StartChar: sym05B
Encoding: 118 -1 118
Width: 930
Flags: HW
HStem: 47 100<566.52 840> 250 100<90 423.082 521 840> 453 100<566.52 840>
VStem: 419 102<199.639 250 350 400.361>
CounterMasks: 1 e0
LayerCount: 2
Fore
SplineSet
840 453 m 1
 624 453 l 2
 569 453 534 407 521 350 c 1
 840 350 l 1
 840 250 l 1
 521 250 l 1
 534 193 569 147 624 147 c 2
 840 147 l 1
 840 47 l 1
 624 47 l 2
 516 47 437 139 419 250 c 1
 90 250 l 1
 90 350 l 1
 419 350 l 1
 437 461 516 553 624 553 c 2
 840 553 l 1
 840 453 l 1
EndSplineSet
EndChar

StartChar: sym059
Encoding: 119 -1 119
Width: 685
Flags: HW
HStem: 254 102<242.305 293 393 443.296>
VStem: 90 100<401.52 675> 293 100<-75 258.082 356 675> 495 100<401.52 675>
LayerCount: 2
Fore
SplineSet
190 675 m 1
 190 459 l 2
 190 404 236 369 293 356 c 1
 293 675 l 1
 393 675 l 1
 393 356 l 1
 450 369 495 404 495 459 c 2
 495 675 l 1
 595 675 l 1
 595 459 l 2
 595 351 504 272 393 254 c 1
 393 -75 l 1
 293 -75 l 1
 293 254 l 1
 181 272 90 351 90 459 c 2
 90 675 l 1
 190 675 l 1
EndSplineSet
EndChar

StartChar: uni21C9
Encoding: 120 8649 120
Width: 930
Flags: HW
HStem: 91 100<90 669> 409 100<90 669>
LayerCount: 2
Fore
SplineSet
861 141 m 1
 666 -54 l 1
 595 17 l 1
 669 91 l 1
 90 91 l 1
 90 191 l 1
 669 191 l 1
 595 265 l 1
 630 300 l 1
 595 335 l 1
 669 409 l 1
 90 409 l 1
 90 509 l 1
 669 509 l 1
 595 583 l 1
 666 654 l 1
 861 459 l 1
 701 300 l 1
 861 141 l 1
EndSplineSet
EndChar

StartChar: uni21C8
Encoding: 121 8648 121
Width: 917
Flags: HW
VStem: 249 100<-75 504> 568 100<-75 504>
LayerCount: 2
Fore
SplineSet
618 696 m 1
 812 501 l 1
 741 430 l 1
 668 504 l 1
 668 -75 l 1
 568 -75 l 1
 568 504 l 1
 494 430 l 1
 458 466 l 1
 423 430 l 1
 349 504 l 1
 349 -75 l 1
 249 -75 l 1
 249 504 l 1
 175 430 l 1
 105 501 l 1
 299 696 l 1
 458 536 l 1
 618 696 l 1
EndSplineSet
EndChar

StartChar: uni21C7
Encoding: 122 8647 122
Width: 930
Flags: HW
HStem: 91 100<261 840> 409 100<261 840>
LayerCount: 2
Fore
SplineSet
69 459 m 1
 264 654 l 1
 335 583 l 1
 261 509 l 1
 840 509 l 1
 840 409 l 1
 261 409 l 1
 335 335 l 1
 300 300 l 1
 335 265 l 1
 261 191 l 1
 840 191 l 1
 840 91 l 1
 261 91 l 1
 335 17 l 1
 264 -54 l 1
 69 141 l 1
 229 300 l 1
 69 459 l 1
EndSplineSet
EndChar

StartChar: uni21CA
Encoding: 123 8650 123
Width: 917
Flags: HW
VStem: 249 100<96 675> 568 100<96 675>
LayerCount: 2
Fore
SplineSet
299 -96 m 1
 105 99 l 1
 175 170 l 1
 249 96 l 1
 249 675 l 1
 349 675 l 1
 349 96 l 1
 423 170 l 1
 458 134 l 1
 494 170 l 1
 568 96 l 1
 568 675 l 1
 668 675 l 1
 668 96 l 1
 741 170 l 1
 812 99 l 1
 618 -96 l 1
 458 63 l 1
 299 -96 l 1
EndSplineSet
EndChar

StartChar: sym05D
Encoding: 124 -1 124
Width: 1231
Flags: HW
HStem: 367 100<783 837> 592 100<508 612>
VStem: 683 100<467 522> 908 100<192 297>
LayerCount: 2
Fore
SplineSet
1008 467 m 1
 1008 192 l 1
 908 192 l 1
 908 297 l 1
 498 -113 l 1
 428 -42 l 1
 837 367 l 1
 733 367 l 1
 733 417 l 1
 683 417 l 1
 683 522 l 1
 273 112 l 1
 203 183 l 1
 612 592 l 1
 508 592 l 1
 508 692 l 1
 783 692 l 1
 783 467 l 1
 1008 467 l 1
EndSplineSet
EndChar

StartChar: sym05C
Encoding: 125 -1 125
Width: 1231
Flags: HW
HStem: 367 100<395 448> 592 100<620 724>
VStem: 223 100<192 297> 448 100<467 522>
LayerCount: 2
Fore
SplineSet
448 692 m 1
 724 692 l 1
 724 592 l 1
 620 592 l 1
 1029 183 l 1
 958 112 l 1
 548 522 l 1
 548 417 l 1
 498 417 l 1
 498 367 l 1
 395 367 l 1
 804 -42 l 1
 733 -113 l 1
 323 297 l 1
 323 192 l 1
 223 192 l 1
 223 467 l 1
 448 467 l 1
 448 692 l 1
EndSplineSet
EndChar

StartChar: sym05F
Encoding: 126 -1 126
Width: 1231
Flags: HW
HStem: -92 100<620 724> 133 100<395 448> 693 20G<713 753>
VStem: 223 100<303 408> 448 100<78 133>
LayerCount: 2
Fore
SplineSet
223 133 m 1
 223 408 l 1
 323 408 l 1
 323 303 l 1
 733 713 l 1
 804 642 l 1
 395 233 l 1
 498 233 l 1
 498 183 l 1
 548 183 l 1
 548 78 l 1
 958 488 l 1
 1029 417 l 1
 620 8 l 1
 724 8 l 1
 724 -92 l 1
 448 -92 l 1
 448 133 l 1
 223 133 l 1
EndSplineSet
EndChar

StartChar: sym05E
Encoding: 127 -1 127
Width: 1231
Flags: HW
HStem: -92 100<508 612> 133 100<783 837> 693 20G<478.282 518>
VStem: 683 100<78 133> 908 100<303 408>
LayerCount: 2
Fore
SplineSet
783 -92 m 1
 508 -92 l 1
 508 8 l 1
 612 8 l 1
 203 417 l 1
 273 488 l 1
 683 78 l 1
 683 183 l 1
 733 183 l 1
 733 233 l 1
 837 233 l 1
 428 642 l 1
 498 713 l 1
 908 303 l 1
 908 408 l 1
 1008 408 l 1
 1008 133 l 1
 783 133 l 1
 783 -92 l 1
EndSplineSet
EndChar

StartChar: uni21C4
Encoding: 128 8644 128
Width: 930
Flags: HW
HStem: 91 100<261 840> 409 100<90 669>
LayerCount: 2
Fore
SplineSet
861 459 m 1
 666 265 l 1
 595 335 l 1
 669 409 l 1
 90 409 l 1
 90 509 l 1
 669 509 l 1
 595 583 l 1
 666 654 l 1
 861 459 l 1
69 141 m 1
 264 335 l 1
 335 265 l 1
 261 191 l 1
 840 191 l 1
 840 91 l 1
 261 91 l 1
 335 17 l 1
 264 -54 l 1
 69 141 l 1
EndSplineSet
EndChar

StartChar: uni21C5
Encoding: 129 8645 129
Width: 917
Flags: HW
VStem: 249 100<-75 504> 568 100<96 675>
LayerCount: 2
Fore
SplineSet
299 696 m 1
 494 501 l 1
 423 430 l 1
 349 504 l 1
 349 -75 l 1
 249 -75 l 1
 249 504 l 1
 175 430 l 1
 105 501 l 1
 299 696 l 1
618 -96 m 1
 423 99 l 1
 494 170 l 1
 568 96 l 1
 568 675 l 1
 668 675 l 1
 668 96 l 1
 741 170 l 1
 812 99 l 1
 618 -96 l 1
EndSplineSet
EndChar

StartChar: sym061
Encoding: 130 -1 130
Width: 1231
Flags: HW
HStem: -92 100<620 724> 592 100<508 612>
VStem: 448 100<78 183> 683 100<417 522>
LayerCount: 2
Fore
SplineSet
783 692 m 1
 783 417 l 1
 683 417 l 1
 683 522 l 1
 273 112 l 1
 203 183 l 1
 612 592 l 1
 508 592 l 1
 508 692 l 1
 783 692 l 1
448 -92 m 1
 448 183 l 1
 548 183 l 1
 548 78 l 1
 958 488 l 1
 1029 417 l 1
 620 8 l 1
 724 8 l 1
 724 -92 l 1
 448 -92 l 1
EndSplineSet
EndChar

StartChar: sym060
Encoding: 131 -1 131
Width: 1231
Flags: HW
HStem: 133 100<733 837> 367 100<395 498> 693 20G<478.282 518>
VStem: 223 100<192 297> 908 100<303 408>
LayerCount: 2
Fore
SplineSet
223 467 m 1
 498 467 l 1
 498 367 l 1
 395 367 l 1
 804 -42 l 1
 733 -113 l 1
 323 297 l 1
 323 192 l 1
 223 192 l 1
 223 467 l 1
1008 133 m 1
 733 133 l 1
 733 233 l 1
 837 233 l 1
 428 642 l 1
 498 713 l 1
 908 303 l 1
 908 408 l 1
 1008 408 l 1
 1008 133 l 1
EndSplineSet
EndChar

StartChar: uni21C6
Encoding: 132 8646 132
Width: 930
Flags: HW
HStem: 91 100<90 669> 409 100<261 840>
LayerCount: 2
Fore
SplineSet
861 141 m 1
 666 -54 l 1
 595 17 l 1
 669 91 l 1
 90 91 l 1
 90 191 l 1
 669 191 l 1
 595 265 l 1
 666 335 l 1
 861 141 l 1
69 459 m 1
 264 654 l 1
 335 583 l 1
 261 509 l 1
 840 509 l 1
 840 409 l 1
 261 409 l 1
 335 335 l 1
 264 265 l 1
 69 459 l 1
EndSplineSet
EndChar

StartChar: uni21F5
Encoding: 133 8693 133
Width: 917
Flags: HW
VStem: 249 100<96 675> 568 100<-75 504>
LayerCount: 2
Fore
SplineSet
618 696 m 1
 812 501 l 1
 741 430 l 1
 668 504 l 1
 668 -75 l 1
 568 -75 l 1
 568 504 l 1
 494 430 l 1
 423 501 l 1
 618 696 l 1
299 -96 m 1
 105 99 l 1
 175 170 l 1
 249 96 l 1
 249 675 l 1
 349 675 l 1
 349 96 l 1
 423 170 l 1
 494 99 l 1
 299 -96 l 1
EndSplineSet
EndChar

StartChar: sym063
Encoding: 134 -1 134
Width: 1231
Flags: HW
HStem: 133 100<395 498> 367 100<733 837> 693 20G<713 753>
VStem: 223 100<303 408> 908 100<192 297>
LayerCount: 2
Fore
SplineSet
1008 467 m 1
 1008 192 l 1
 908 192 l 1
 908 297 l 1
 498 -113 l 1
 428 -42 l 1
 837 367 l 1
 733 367 l 1
 733 467 l 1
 1008 467 l 1
223 133 m 1
 223 408 l 1
 323 408 l 1
 323 303 l 1
 733 713 l 1
 804 642 l 1
 395 233 l 1
 498 233 l 1
 498 133 l 1
 223 133 l 1
EndSplineSet
EndChar

StartChar: sym062
Encoding: 135 -1 135
Width: 1231
Flags: HW
HStem: -92 100<508 612> 592 100<620 724>
VStem: 448 100<417 522> 683 100<78 183>
LayerCount: 2
Fore
SplineSet
448 692 m 1
 724 692 l 1
 724 592 l 1
 620 592 l 1
 1029 183 l 1
 958 112 l 1
 548 522 l 1
 548 417 l 1
 448 417 l 1
 448 692 l 1
783 -92 m 1
 508 -92 l 1
 508 8 l 1
 612 8 l 1
 203 417 l 1
 273 488 l 1
 683 78 l 1
 683 183 l 1
 783 183 l 1
 783 -92 l 1
EndSplineSet
EndChar

StartChar: uni219D
Encoding: 136 8605 136
Width: 930
Flags: HW
HStem: 170 100<460.973 534.149> 250 100<613.021 669> 330 100<236.115 324.363>
LayerCount: 2
Fore
SplineSet
861 300 m 1x40
 666 105 l 1
 595 176 l 1
 669 250 l 1
 646 250 l 2x40
 627 250 617 230 602 219 c 0
 571 197 540 170 501 170 c 0
 438 170 389 219 352 271 c 0
 333 298 316 330 284 330 c 0
 233 330 210 274 181 232 c 1
 99 289 l 1
 147 357 202 430 284 430 c 0
 348 430 397 381 434 329 c 0
 452 302 469 270 501 270 c 0xa0
 520 270 530 291 545 301 c 0
 576 323 614 350 646 350 c 2
 669 350 l 1
 595 424 l 1
 666 495 l 1
 861 300 l 1x40
EndSplineSet
EndChar

StartChar: sym064.alt
Encoding: 137 -1 137
Width: 598
Flags: HW
VStem: 170 100<71.1154 159.363> 249 100<448.021 504> 329 100<295.973 369.149>
LayerCount: 2
Fore
SplineSet
299 696 m 1x40
 494 501 l 1
 423 430 l 1
 349 504 l 1
 349 481 l 2x40
 349 462 369 452 380 437 c 0
 402 406 429 375 429 336 c 0
 429 273 381 224 328 187 c 0
 302 168 270 151 270 119 c 0
 270 68 326 45 368 16 c 1
 310 -66 l 1
 242 -18 170 37 170 119 c 0
 170 183 218 232 271 269 c 0
 297 287 329 304 329 336 c 0xa0
 329 355 309 365 298 380 c 0
 276 411 249 449 249 481 c 2
 249 504 l 1
 175 430 l 1
 105 501 l 1
 299 696 l 1x40
EndSplineSet
EndChar

StartChar: uni219C.alt
Encoding: 138 -1 138
Width: 930
Flags: HW
HStem: 170 100<605.637 693.885> 250 100<261 316.979> 330 100<395.851 469.027>
LayerCount: 2
Fore
SplineSet
69 300 m 1x40
 264 495 l 1
 335 424 l 1
 261 350 l 1
 284 350 l 2x40
 303 350 313 370 328 381 c 0
 359 403 390 430 429 430 c 0
 492 430 541 381 578 329 c 0
 597 302 614 270 646 270 c 0
 697 270 720 326 749 368 c 1
 831 311 l 1
 783 243 728 170 646 170 c 0
 582 170 533 219 496 271 c 0
 478 298 461 330 429 330 c 0xa0
 410 330 400 309 385 299 c 0
 354 277 316 250 284 250 c 2
 261 250 l 1
 335 176 l 1
 264 105 l 1
 69 300 l 1x40
EndSplineSet
EndChar

StartChar: sym065
Encoding: 139 -1 139
Width: 598
Flags: HW
VStem: 170 100<230.537 304.027> 249 100<96 151.979> 329 100<440.637 528.885>
LayerCount: 2
Fore
SplineSet
299 -96 m 1x40
 105 99 l 1
 175 170 l 1
 249 96 l 1
 249 119 l 2x40
 249 138 229 148 218 163 c 0
 196 194 170 225 170 264 c 0
 170 327 218 376 271 413 c 0
 297 432 329 449 329 481 c 0
 329 532 273 555 231 584 c 1
 288 666 l 1
 356 618 429 563 429 481 c 0
 429 417 381 368 328 331 c 0
 302 313 270 296 270 264 c 0xa0
 270 245 290 235 300 220 c 0
 322 189 349 151 349 119 c 2
 349 96 l 1
 423 170 l 1
 494 99 l 1
 299 -96 l 1x40
EndSplineSet
EndChar

StartChar: uni219D.alt
Encoding: 140 -1 140
Width: 930
Flags: HW
HStem: 170 100<236.115 324.363> 250 100<613.021 669> 330 100<460.973 534.149>
LayerCount: 2
Fore
SplineSet
861 300 m 1x40
 666 105 l 1
 595 176 l 1
 669 250 l 1
 646 250 l 2x40
 614 250 576 277 545 299 c 0
 530 309 520 330 501 330 c 0
 469 330 452 298 434 271 c 0
 397 219 348 170 284 170 c 0
 202 170 147 243 99 311 c 1
 181 368 l 1
 210 326 233 270 284 270 c 0
 316 270 333 302 352 329 c 0
 389 381 438 430 501 430 c 0xa0
 540 430 571 403 602 381 c 0
 617 370 627 350 646 350 c 2
 669 350 l 1
 595 424 l 1
 666 495 l 1
 861 300 l 1x40
EndSplineSet
EndChar

StartChar: sym064
Encoding: 141 -1 141
Width: 598
Flags: HW
VStem: 170 100<295.973 369.463> 249 100<448.021 504> 329 100<71.1154 159.363>
LayerCount: 2
Fore
SplineSet
299 696 m 1x40
 494 501 l 1
 423 430 l 1
 349 504 l 1
 349 481 l 2x40
 349 449 322 411 300 380 c 0
 290 365 270 355 270 336 c 0
 270 304 302 287 328 269 c 0
 381 232 429 183 429 119 c 0
 429 37 356 -18 288 -66 c 1
 231 16 l 1
 273 45 329 68 329 119 c 0
 329 151 297 168 271 187 c 0
 218 224 170 273 170 336 c 0xa0
 170 375 196 406 218 437 c 0
 229 452 249 462 249 481 c 2
 249 504 l 1
 175 430 l 1
 105 501 l 1
 299 696 l 1x40
EndSplineSet
EndChar

StartChar: uni219C
Encoding: 142 8604 142
Width: 930
Flags: HW
HStem: 170 100<395.851 469.027> 250 100<261 316.979> 330 100<605.637 693.885>
LayerCount: 2
Fore
SplineSet
69 300 m 1x40
 264 495 l 1
 335 424 l 1
 261 350 l 1
 284 350 l 2x40
 316 350 354 323 385 301 c 0
 400 291 410 270 429 270 c 0
 461 270 478 302 496 329 c 0
 533 381 582 430 646 430 c 0
 728 430 783 357 831 289 c 1
 749 232 l 1
 720 274 697 330 646 330 c 0
 614 330 597 298 578 271 c 0
 541 219 492 170 429 170 c 0xa0
 390 170 359 197 328 219 c 0
 313 230 303 250 284 250 c 2
 261 250 l 1
 335 176 l 1
 264 105 l 1
 69 300 l 1x40
EndSplineSet
EndChar

StartChar: sym065.alt
Encoding: 143 -1 143
Width: 598
Flags: HW
VStem: 170 100<440.637 528.885> 249 100<96 151.979> 329 100<230.851 304.027>
LayerCount: 2
Fore
SplineSet
299 -96 m 1x40
 105 99 l 1
 175 170 l 1
 249 96 l 1
 249 119 l 2x40
 249 151 276 189 298 220 c 0
 309 235 329 245 329 264 c 0
 329 296 297 313 271 331 c 0
 218 368 170 417 170 481 c 0
 170 563 242 618 310 666 c 1
 368 584 l 1
 326 555 270 532 270 481 c 0
 270 449 302 432 328 413 c 0
 381 376 429 327 429 264 c 0xa0
 429 225 402 194 380 163 c 0
 369 148 349 138 349 119 c 2
 349 96 l 1
 423 170 l 1
 494 99 l 1
 299 -96 l 1x40
EndSplineSet
EndChar

StartChar: uni21AD
Encoding: 144 8621 144
Width: 1080
Flags: HW
HStem: 170 100<609.122 676.68> 250 100<261 317.855 762.145 819> 330 100<397.838 471.562>
LayerCount: 2
Fore
SplineSet
649 270 m 1xa0
 756 348 768 350 795 350 c 2
 819 350 l 1
 745 424 l 1
 816 495 l 1
 1011 300 l 1
 816 105 l 1
 745 176 l 1
 819 250 l 1
 795 250 l 2x40
 776 250 766 230 751 219 c 0
 719 197 681 170 649 170 c 0
 585 170 536 219 499 271 c 0
 481 298 463 330 431 330 c 0xa0
 412 330 402 309 387 299 c 0
 355 277 324 250 285 250 c 2
 261 250 l 1
 335 176 l 1
 264 105 l 1
 69 300 l 1
 264 495 l 1
 335 424 l 1
 261 350 l 1
 285 350 l 2x40
 304 350 314 370 329 381 c 0
 361 403 392 430 431 430 c 0
 495 430 544 381 581 329 c 0
 599 302 617 270 649 270 c 1xa0
EndSplineSet
EndChar

StartChar: sym066.alt
Encoding: 145 -1 145
Width: 598
Flags: HW
VStem: 170 100<157.524 231.562> 249 100<21 77.8546 522.145 579> 329 100<369.122 409>
LayerCount: 2
Fore
SplineSet
299 771 m 1x40
 494 576 l 1
 423 505 l 1
 349 579 l 1
 349 555 l 2x40
 349 536 369 526 380 511 c 0
 402 479 429 441 429 409 c 0
 429 345 381 296 328 259 c 0
 301 241 270 223 270 191 c 0xa0
 270 172 290 162 300 147 c 0
 322 115 349 84 349 45 c 2
 349 21 l 1
 423 95 l 1
 494 24 l 1
 299 -171 l 1
 105 24 l 1
 175 95 l 1
 249 21 l 1
 249 45 l 2x40
 249 64 229 74 218 89 c 0
 196 121 170 152 170 191 c 0
 170 255 218 304 271 341 c 0
 297 359 329 377 329 409 c 1xa0
 329 409 309 438 298 453 c 0
 276 485 249 516 249 555 c 2
 249 579 l 1
 175 505 l 1
 105 576 l 1
 299 771 l 1x40
EndSplineSet
EndChar

StartChar: uni21AD.alt
Encoding: 146 -1 146
Width: 1080
Flags: HW
HStem: 170 100<397.838 471.562> 250 100<261 317.855 762.145 819> 330 100<609.122 676.68>
LayerCount: 2
Fore
SplineSet
795 250 m 2x40
 768 250 756 252 649 330 c 1
 617 330 599 298 581 271 c 0
 544 219 495 170 431 170 c 0xa0
 392 170 361 197 329 219 c 0
 314 230 304 250 285 250 c 2
 261 250 l 1
 335 176 l 1
 264 105 l 1
 69 300 l 1
 264 495 l 1
 335 424 l 1
 261 350 l 1
 285 350 l 2x40
 324 350 355 323 387 301 c 0
 402 291 412 270 431 270 c 0
 463 270 481 302 499 329 c 0
 536 381 585 430 649 430 c 0xa0
 681 430 719 403 751 381 c 0
 766 370 776 350 795 350 c 2
 819 350 l 1
 745 424 l 1
 816 495 l 1
 1011 300 l 1
 816 105 l 1
 745 176 l 1
 819 250 l 1
 795 250 l 2x40
EndSplineSet
EndChar

StartChar: sym066
Encoding: 147 -1 147
Width: 598
Flags: HW
VStem: 170 100<369.122 438.456> 249 100<21 77.8546 521.778 579> 329 100<157.838 231.562>
LayerCount: 2
Fore
SplineSet
349 555 m 2x40
 349 525 349 524 270 409 c 1
 270 377 301 359 328 341 c 0
 381 304 429 255 429 191 c 0xa0
 429 152 402 121 380 89 c 0
 369 74 349 64 349 45 c 2
 349 21 l 1
 423 95 l 1
 494 24 l 1
 299 -171 l 1
 105 24 l 1
 175 95 l 1
 249 21 l 1
 249 45 l 2x40
 249 84 276 115 298 147 c 0
 309 162 329 172 329 191 c 0
 329 223 297 241 271 259 c 0
 218 296 170 345 170 409 c 0xa0
 170 441 196 479 218 511 c 0
 229 526 249 536 249 555 c 2
 249 579 l 1
 175 505 l 1
 105 576 l 1
 299 771 l 1
 494 576 l 1
 423 505 l 1
 349 579 l 1
 349 555 l 2x40
EndSplineSet
EndChar

StartChar: sym069
Encoding: 148 -1 148
Width: 930
Flags: HW
HStem: 330 100<320.775 520.885>
LayerCount: 2
Fore
SplineSet
420 430 m 0
 490 430 605 407 719 280 c 1
 727 369 l 1
 827 361 l 1
 803 87 l 1
 529 111 l 1
 538 210 l 1
 657 200 l 1
 632 231 547 330 421 330 c 0
 324 330 238 273 181 192 c 1
 99 249 l 1
 175 357 290 430 420 430 c 0
EndSplineSet
EndChar

StartChar: sym068
Encoding: 149 -1 149
Width: 598
Flags: HW
VStem: 170 100<154.149 356.721>
LayerCount: 2
Fore
SplineSet
170 252 m 0
 170 338 200 448 319 554 c 1
 230 562 l 1
 238 662 l 1
 513 638 l 1
 489 364 l 1
 389 373 l 1
 399 492 l 1
 324 431 270 352 270 253 c 0
 270 158 328 72 407 16 c 1
 350 -66 l 1
 243 9 170 124 170 252 c 0
EndSplineSet
EndChar

StartChar: sym067
Encoding: 150 -1 150
Width: 930
Flags: HW
HStem: 170 100<411.603 609.554>
LayerCount: 2
Fore
SplineSet
511 170 m 0
 441 170 325 193 211 320 c 1
 203 231 l 1
 103 239 l 1
 127 513 l 1
 401 489 l 1
 392 390 l 1
 273 400 l 1
 296 372 382 270 510 270 c 0
 606 270 692 327 749 408 c 1
 831 351 l 1
 755 243 640 170 511 170 c 0
EndSplineSet
EndChar

StartChar: uni2938
Encoding: 151 10552 151
Width: 598
Flags: HW
VStem: 329 100<244.606 444.554>
LayerCount: 2
Fore
SplineSet
429 346 m 0
 429 276 406 160 279 46 c 1
 369 38 l 1
 360 -62 l 1
 86 -38 l 1
 110 236 l 1
 209 227 l 1
 199 108 l 1
 258 156 329 237 329 345 c 0
 329 441 272 527 191 584 c 1
 248 666 l 1
 356 590 429 475 429 346 c 0
EndSplineSet
EndChar

StartChar: sym06C
Encoding: 152 -1 152
Width: 1006
Flags: HW
HStem: 368 99<541.59 697>
VStem: 273 100<21.4535 198.401>
LayerCount: 2
Fore
SplineSet
273 86 m 0
 273 291 407 467 665 467 c 0
 676 467 686 467 697 466 c 1
 639 535 l 1
 716 599 l 1
 893 388 l 1
 682 211 l 1
 618 288 l 1
 710 365 l 1
 693 367 677 368 661 368 c 0
 465 368 373 234 373 88 c 0
 373 66 375 44 379 23 c 1
 280 5 l 1
 275 32 273 59 273 86 c 0
EndSplineSet
EndChar

StartChar: sym06B
Encoding: 153 -1 153
Width: 1006
Flags: HW
HStem: 70 100<603.588 782.624>
VStem: 337 98<338.358 494>
LayerCount: 2
Fore
SplineSet
716 70 m 0
 509 70 337 206 337 460 c 0
 337 471 337 483 338 494 c 1
 269 436 l 1
 204 513 l 1
 415 690 l 1
 592 479 l 1
 515 415 l 1
 438 507 l 1
 436 490 435 473 435 457 c 0
 435 263 567 170 716 170 c 0
 738 170 759 172 781 176 c 1
 798 77 l 1
 771 72 743 70 716 70 c 0
EndSplineSet
EndChar

StartChar: uni2936
Encoding: 154 10550 154
Width: 1006
Flags: HW
HStem: 1 21G<273.223 314.062> 133 99<309 462.926>
VStem: 633 100<398.915 578.484>
LayerCount: 2
Fore
SplineSet
733 513 m 0
 733 304 594 133 341 133 c 0
 330 133 320 133 309 134 c 1
 367 65 l 1
 290 1 l 1
 113 212 l 1
 324 389 l 1
 388 312 l 1
 296 235 l 1
 313 233 330 232 346 232 c 0
 537 232 633 360 633 511 c 0
 633 533 631 555 627 577 c 1
 726 595 l 1
 731 568 733 540 733 513 c 0
EndSplineSet
EndChar

StartChar: uni2935
Encoding: 155 10549 155
Width: 1006
Flags: HW
HStem: 430 100<224.515 403.027>
VStem: 571 99<106 260.544>
LayerCount: 2
Fore
SplineSet
290 530 m 0
 499 530 670 391 670 138 c 0
 670 127 670 117 669 106 c 1
 738 164 l 1
 802 87 l 1
 591 -90 l 1
 414 121 l 1
 491 185 l 1
 568 94 l 1
 570 110 571 127 571 143 c 0
 571 337 439 430 291 430 c 0
 269 430 248 428 226 424 c 1
 208 523 l 1
 235 528 263 530 290 530 c 0
EndSplineSet
EndChar

StartChar: uni293B
Encoding: 156 10555 156
Width: 930
Flags: HW
HStem: 170 100<320.775 519.146>
LayerCount: 2
Fore
SplineSet
719 320 m 1
 662 256 559 170 420 170 c 0
 290 170 175 243 99 351 c 1
 181 408 l 1
 238 327 324 270 421 270 c 0
 481 270 569 293 657 400 c 1
 538 390 l 1
 529 489 l 1
 803 513 l 1
 827 239 l 1
 727 231 l 1
 719 320 l 1
EndSplineSet
EndChar

StartChar: sym06A
Encoding: 157 -1 157
Width: 598
Flags: HW
VStem: 329 100<155.446 353.463>
LayerCount: 2
Fore
SplineSet
279 554 m 1
 342 497 429 394 429 254 c 0
 429 125 356 10 248 -66 c 1
 191 16 l 1
 272 73 329 159 329 255 c 0
 329 314 307 404 199 492 c 1
 209 373 l 1
 110 364 l 1
 86 638 l 1
 360 662 l 1
 369 562 l 1
 279 554 l 1
EndSplineSet
EndChar

StartChar: uni293A
Encoding: 158 10554 158
Width: 930
Flags: HW
HStem: 330 100<411.338 609.554>
LayerCount: 2
Fore
SplineSet
211 280 m 1
 268 343 371 430 511 430 c 0
 640 430 755 357 831 249 c 1
 749 192 l 1
 692 273 606 330 510 330 c 0
 450 330 361 308 273 200 c 1
 392 210 l 1
 401 111 l 1
 127 87 l 1
 103 361 l 1
 203 369 l 1
 211 280 l 1
EndSplineSet
EndChar

StartChar: uni2939
Encoding: 159 10553 159
Width: 598
Flags: HW
VStem: 170 100<243.353 445.851>
LayerCount: 2
Fore
SplineSet
319 46 m 1
 243 114 170 214 170 348 c 0
 170 476 243 591 350 666 c 1
 407 584 l 1
 328 528 270 442 270 347 c 0
 270 271 302 187 399 108 c 1
 389 227 l 1
 489 236 l 1
 513 -38 l 1
 238 -62 l 1
 230 38 l 1
 319 46 l 1
EndSplineSet
EndChar

StartChar: uni2934
Encoding: 160 10548 160
Width: 1006
Flags: HW
HStem: 70 100<224.515 403.027>
VStem: 571 99<339.456 494>
LayerCount: 2
Fore
SplineSet
291 170 m 0
 439 170 571 263 571 457 c 0
 571 473 570 490 568 506 c 1
 491 415 l 1
 414 479 l 1
 591 690 l 1
 802 513 l 1
 738 436 l 1
 669 494 l 1
 670 483 670 473 670 462 c 0
 670 209 499 70 290 70 c 0
 263 70 235 72 208 77 c 1
 226 176 l 1
 248 172 269 170 291 170 c 0
EndSplineSet
EndChar

StartChar: sym06D
Encoding: 161 -1 161
Width: 1006
Flags: HW
HStem: 368 99<309 462.72>
VStem: 633 100<21.5158 201.085>
LayerCount: 2
Fore
SplineSet
633 89 m 0
 633 240 536 368 346 368 c 0
 330 368 313 367 296 365 c 1
 388 288 l 1
 324 211 l 1
 113 388 l 1
 290 599 l 1
 367 535 l 1
 309 466 l 1
 320 467 330 467 341 467 c 0
 594 467 733 296 733 87 c 0
 733 60 731 32 726 5 c 1
 627 23 l 1
 631 45 633 67 633 89 c 0
EndSplineSet
EndChar

StartChar: sym06E
Encoding: 162 -1 162
Width: 1006
Flags: HW
HStem: 430 100<603.588 782.624>
VStem: 337 98<106 261.642>
LayerCount: 2
Fore
SplineSet
716 430 m 0
 567 430 435 337 435 143 c 0
 435 127 436 110 438 93 c 1
 515 185 l 1
 592 121 l 1
 415 -90 l 1
 204 87 l 1
 269 164 l 1
 338 106 l 1
 337 117 337 129 337 140 c 0
 337 394 509 530 716 530 c 0
 743 530 771 528 798 523 c 1
 781 424 l 1
 759 428 738 430 716 430 c 0
EndSplineSet
EndChar

StartChar: uni2937
Encoding: 163 10551 163
Width: 1006
Flags: HW
HStem: 1 21G<691.938 732.777> 133 99<540.21 697>
VStem: 273 100<399.983 578.547>
LayerCount: 2
Fore
SplineSet
665 133 m 0
 408 133 273 309 273 514 c 0
 273 541 275 568 280 595 c 1
 379 577 l 1
 375 556 373 534 373 512 c 0
 373 433 400 355 459 302 c 0
 515 252 586 232 661 232 c 0
 677 232 693 233 710 235 c 1
 618 312 l 1
 682 389 l 1
 893 212 l 1
 716 1 l 1
 639 65 l 1
 697 134 l 1
 686 133 676 133 665 133 c 0
EndSplineSet
EndChar

StartChar: sym06F
Encoding: 164 -1 164
Width: 1080
Flags: HW
HStem: 330 100<432 648>
LayerCount: 2
Fore
SplineSet
945 87 m 1
 671 111 l 1
 680 210 l 1
 797 200 l 1
 730 277 642 330 540 330 c 0
 438 330 350 277 283 200 c 1
 400 210 l 1
 409 111 l 1
 135 87 l 1
 111 361 l 1
 210 369 l 1
 218 277 l 1
 303 369 415 430 540 430 c 0
 665 430 777 369 862 277 c 1
 870 369 l 1
 969 361 l 1
 945 87 l 1
EndSplineSet
EndChar

StartChar: sym070
Encoding: 165 -1 165
Width: 598
Flags: HW
VStem: 170 100<192 408>
LayerCount: 2
Fore
SplineSet
513 705 m 1
 489 431 l 1
 389 440 l 1
 399 557 l 1
 323 490 270 402 270 300 c 0
 270 198 323 110 399 43 c 1
 389 160 l 1
 489 169 l 1
 513 -105 l 1
 238 -129 l 1
 230 -30 l 1
 322 -22 l 1
 230 63 170 175 170 300 c 0
 170 425 230 537 322 622 c 1
 230 630 l 1
 238 729 l 1
 513 705 l 1
EndSplineSet
EndChar

StartChar: sym071
Encoding: 166 -1 166
Width: 1080
Flags: HW
HStem: 170 100<432 648>
LayerCount: 2
Fore
SplineSet
135 513 m 1
 409 489 l 1
 400 390 l 1
 283 400 l 1
 350 323 438 270 540 270 c 0
 642 270 730 323 797 400 c 1
 680 390 l 1
 671 489 l 1
 945 513 l 1
 969 239 l 1
 870 231 l 1
 862 323 l 1
 777 231 665 170 540 170 c 0
 415 170 303 231 218 323 c 1
 210 231 l 1
 111 239 l 1
 135 513 l 1
EndSplineSet
EndChar

StartChar: sym072
Encoding: 167 -1 167
Width: 598
Flags: HW
VStem: 329 100<192 408>
LayerCount: 2
Fore
SplineSet
86 -105 m 1
 110 169 l 1
 209 160 l 1
 199 43 l 1
 276 110 329 198 329 300 c 0
 329 402 276 490 199 557 c 1
 209 440 l 1
 110 431 l 1
 86 705 l 1
 360 729 l 1
 369 630 l 1
 276 622 l 1
 368 537 429 425 429 300 c 0
 429 175 368 63 276 -22 c 1
 369 -30 l 1
 360 -129 l 1
 86 -105 l 1
EndSplineSet
EndChar

StartChar: sym074
Encoding: 168 -1 168
Width: 1112
Flags: HW
HStem: 412 100<651.792 799.912>
VStem: 344 100<56.0884 204.208>
LayerCount: 2
Fore
SplineSet
344 79 m 0
 344 337 519 512 777 512 c 0
 785 512 792 511 800 511 c 1
 740 582 l 1
 817 647 l 1
 994 436 l 1
 783 259 l 1
 719 336 l 1
 809 411 l 1
 798 412 788 412 777 412 c 0
 576 412 444 280 444 79 c 0
 444 68 444 58 445 47 c 1
 521 137 l 1
 597 73 l 1
 420 -138 l 1
 210 39 l 1
 274 116 l 1
 345 56 l 1
 345 64 344 71 344 79 c 0
EndSplineSet
EndChar

StartChar: sym073
Encoding: 169 -1 169
Width: 1112
Flags: HW
HStem: 88 100<651.792 799.912>
VStem: 344 100<395.792 543.912>
LayerCount: 2
Fore
SplineSet
777 88 m 0
 519 88 344 263 344 521 c 0
 344 529 345 536 345 544 c 1
 274 484 l 1
 210 561 l 1
 420 738 l 1
 597 527 l 1
 521 463 l 1
 445 553 l 1
 444 542 444 532 444 521 c 0
 444 320 576 188 777 188 c 0
 788 188 798 188 809 189 c 1
 719 264 l 1
 783 341 l 1
 994 164 l 1
 817 -47 l 1
 740 18 l 1
 800 89 l 1
 792 89 785 88 777 88 c 0
EndSplineSet
EndChar

StartChar: sym076
Encoding: 170 -1 170
Width: 1112
Flags: HW
HStem: 88 100<312.417 461.269>
VStem: 668 100<396.852 543.912>
LayerCount: 2
Fore
SplineSet
768 521 m 0
 768 266 596 88 335 88 c 0
 327 88 320 89 312 89 c 1
 372 18 l 1
 295 -47 l 1
 119 164 l 1
 329 341 l 1
 394 264 l 1
 304 189 l 1
 315 188 324 188 335 188 c 0
 536 188 668 320 668 521 c 0
 668 532 668 542 667 553 c 1
 592 463 l 1
 515 527 l 1
 692 738 l 1
 903 561 l 1
 838 484 l 1
 767 544 l 1
 767 536 768 529 768 521 c 0
EndSplineSet
EndChar

StartChar: sym075
Encoding: 171 -1 171
Width: 1112
Flags: HW
HStem: 412 100<312.417 461.269>
VStem: 668 100<56.0884 203.148>
LayerCount: 2
Fore
SplineSet
335 512 m 0
 596 512 768 334 768 79 c 0
 768 71 767 64 767 56 c 1
 838 116 l 1
 903 39 l 1
 692 -138 l 1
 515 73 l 1
 592 137 l 1
 667 47 l 1
 668 58 668 68 668 79 c 0
 668 280 536 412 335 412 c 0
 324 412 315 412 304 411 c 1
 394 336 l 1
 329 259 l 1
 119 436 l 1
 295 647 l 1
 372 582 l 1
 312 511 l 1
 320 511 327 512 335 512 c 0
EndSplineSet
EndChar

StartChar: sym077
Encoding: 172 -1 172
Width: 930
Flags: HW
HStem: 250 100<190 840>
VStem: 90 100<91 250 350 509>
LayerCount: 2
Fore
SplineSet
190 91 m 1
 90 91 l 1
 90 509 l 1
 190 509 l 1
 190 350 l 1
 840 350 l 1
 840 250 l 1
 190 250 l 1
 190 91 l 1
EndSplineSet
EndChar

StartChar: sym078
Encoding: 173 -1 173
Width: 930
Flags: HW
HStem: 250 100<90 740>
VStem: 740 100<91 250 350 509>
LayerCount: 2
Fore
SplineSet
740 509 m 1
 840 509 l 1
 840 91 l 1
 740 91 l 1
 740 250 l 1
 90 250 l 1
 90 350 l 1
 740 350 l 1
 740 509 l 1
EndSplineSet
EndChar

StartChar: sym079
Encoding: 174 -1 174
Width: 1260
Flags: HW
HStem: -184 100<508.367 754.177> -4 21G<1079.66 1142.29> 684 100<508.367 754.678>
VStem: 146 100<178.367 421.633> 1008 99<382.798 437.552>
LayerCount: 2
Fore
SplineSet
246 300 m 0
 246 89 419 -84 630 -84 c 0
 732 -84 829 -43 901 29 c 0
 935 62 962 101 981 144 c 1
 863 101 l 1
 829 195 l 1
 1087 289 l 1
 1181 30 l 1
 1087 -4 l 1
 1058 75 l 1
 1035 32 1007 -7 972 -42 c 0
 881 -133 758 -184 630 -184 c 0
 364 -184 146 34 146 300 c 0
 146 566 364 784 630 784 c 0
 862 784 1064 618 1107 384 c 1
 1008 367 l 1
 974 554 811 684 630 684 c 0
 419 684 246 511 246 300 c 0
EndSplineSet
EndChar

StartChar: uni21BA
Encoding: 175 8634 175
Width: 1260
Flags: HW
HStem: -184 100<508.367 751.633> 678 99<492.448 547.202>
VStem: 146 100<178.367 424.678> 1014 100<178.367 424.177>
LayerCount: 2
Fore
SplineSet
630 -84 m 0
 841 -84 1014 89 1014 300 c 0
 1014 402 973 499 901 571 c 0
 868 605 829 632 786 651 c 1
 829 533 l 1
 735 499 l 1
 641 757 l 1
 900 851 l 1
 934 757 l 1
 855 728 l 1
 898 705 937 677 972 642 c 0
 1063 551 1114 428 1114 300 c 0
 1114 34 896 -184 630 -184 c 0
 364 -184 146 34 146 300 c 0
 146 532 312 734 546 777 c 1
 563 678 l 1
 376 644 246 481 246 300 c 0
 246 89 419 -84 630 -84 c 0
EndSplineSet
EndChar

StartChar: uni27F2
Encoding: 176 10226 176
Width: 1260
Flags: HW
HStem: -184 100<505.322 751.633> 684 100<505.823 751.633>
VStem: 153 99<162.448 217.202> 1014 100<178.367 421.633>
LayerCount: 2
Fore
SplineSet
1014 300 m 0
 1014 511 841 684 630 684 c 0
 528 684 431 643 359 571 c 0
 325 538 298 499 279 456 c 1
 397 499 l 1
 431 405 l 1
 173 311 l 1
 79 570 l 1
 173 604 l 1
 202 525 l 1
 225 568 253 607 288 642 c 0
 379 733 502 784 630 784 c 0
 896 784 1114 566 1114 300 c 0
 1114 34 896 -184 630 -184 c 0
 398 -184 196 -18 153 216 c 1
 252 233 l 1
 286 46 449 -84 630 -84 c 0
 841 -84 1014 89 1014 300 c 0
EndSplineSet
EndChar

StartChar: sym07C
Encoding: 177 -1 177
Width: 1260
Flags: HW
HStem: -177 99<712.798 767.552> 684 100<508.367 751.633>
VStem: 146 100<175.823 421.633> 1014 100<175.322 421.633>
LayerCount: 2
Fore
SplineSet
630 684 m 0
 419 684 246 511 246 300 c 0
 246 198 287 101 359 29 c 0
 392 -5 431 -32 474 -51 c 1
 431 67 l 1
 525 101 l 1
 619 -157 l 1
 360 -251 l 1
 326 -157 l 1
 405 -128 l 1
 362 -105 323 -77 288 -42 c 0
 197 49 146 172 146 300 c 0
 146 566 364 784 630 784 c 0
 896 784 1114 566 1114 300 c 0
 1114 68 948 -134 714 -177 c 1
 697 -78 l 1
 884 -44 1014 119 1014 300 c 0
 1014 511 841 684 630 684 c 0
EndSplineSet
EndChar

StartChar: uni27F3
Encoding: 178 10227 178
Width: 1260
Flags: HW
HStem: -184 100<508.367 754.678> 684 100<508.367 754>
VStem: 146 100<178.367 421.633> 1008 99<162.448 217.202>
LayerCount: 2
Fore
SplineSet
146 300 m 0
 146 566 364 784 630 784 c 0
 758 784 881 733 972 642 c 0
 1007 607 1035 568 1058 525 c 1
 1087 604 l 1
 1181 570 l 1
 1087 311 l 1
 829 405 l 1
 863 499 l 1
 981 456 l 1
 921 591 784 684 630 684 c 0
 419 684 246 511 246 300 c 0
 246 89 419 -84 630 -84 c 0
 811 -84 974 46 1008 233 c 1
 1107 216 l 1
 1064 -18 862 -184 630 -184 c 0
 364 -184 146 34 146 300 c 0
EndSplineSet
EndChar

StartChar: uni21BB
Encoding: 179 8635 179
Width: 1260
Flags: HW
HStem: -184 100<508.367 751.633> 678 99<712.798 767.552>
VStem: 146 100<178.367 424> 1014 100<178.367 424.678>
LayerCount: 2
Fore
SplineSet
630 -184 m 0
 364 -184 146 34 146 300 c 0
 146 428 197 551 288 642 c 0
 323 677 362 705 405 728 c 1
 326 757 l 1
 360 851 l 1
 619 757 l 1
 525 499 l 1
 431 533 l 1
 474 651 l 1
 339 591 246 454 246 300 c 0
 246 89 419 -84 630 -84 c 0
 841 -84 1014 89 1014 300 c 0
 1014 481 884 644 697 678 c 1
 714 777 l 1
 948 734 1114 532 1114 300 c 0
 1114 34 896 -184 630 -184 c 0
EndSplineSet
EndChar

StartChar: sym07A
Encoding: 180 -1 180
Width: 1260
Flags: HW
HStem: -184 100<506 751.633> -4 21G<117.706 180.342> 684 100<505.322 751.633>
VStem: 153 99<382.798 437.552> 1014 100<178.367 421.633>
LayerCount: 2
Fore
SplineSet
1114 300 m 0
 1114 34 896 -184 630 -184 c 0
 502 -184 379 -133 288 -42 c 0
 253 -7 225 32 202 75 c 1
 173 -4 l 1
 79 30 l 1
 173 289 l 1
 431 195 l 1
 397 101 l 1
 279 144 l 1
 339 9 476 -84 630 -84 c 0
 841 -84 1014 89 1014 300 c 0
 1014 511 841 684 630 684 c 0
 449 684 286 554 252 367 c 1
 153 384 l 1
 196 618 398 784 630 784 c 0
 896 784 1114 566 1114 300 c 0
EndSplineSet
EndChar

StartChar: sym07B
Encoding: 181 -1 181
Width: 1260
Flags: HW
HStem: -177 99<492.448 547.202> 684 100<508.367 751.633>
VStem: 146 100<175.322 421.633> 1014 100<176 421.633>
LayerCount: 2
Fore
SplineSet
630 784 m 0
 896 784 1114 566 1114 300 c 0
 1114 172 1063 49 972 -42 c 0
 937 -77 898 -105 855 -128 c 1
 934 -157 l 1
 900 -251 l 1
 641 -157 l 1
 735 101 l 1
 829 67 l 1
 786 -51 l 1
 921 9 1014 146 1014 300 c 0
 1014 511 841 684 630 684 c 0
 419 684 246 511 246 300 c 0
 246 119 376 -44 563 -78 c 1
 546 -177 l 1
 312 -134 146 68 146 300 c 0
 146 566 364 784 630 784 c 0
EndSplineSet
EndChar

StartChar: uni21DB
Encoding: 182 8667 182
Width: 1080
Flags: HW
HStem: 127 80<90 696> 260 80<90 829> 393 80<90 696>
CounterMasks: 1 e0
LayerCount: 2
Fore
SplineSet
1011 300 m 1
 737 26 l 1
 666 97 l 1
 696 127 l 1
 90 127 l 1
 90 207 l 1
 776 207 l 1
 829 260 l 1
 90 260 l 1
 90 340 l 1
 829 340 l 1
 776 393 l 1
 90 393 l 1
 90 473 l 1
 696 473 l 1
 666 503 l 1
 737 574 l 1
 1011 300 l 1
EndSplineSet
EndChar

StartChar: uni290A
Encoding: 183 10506 183
Width: 726
Flags: HW
VStem: 190 80<-150 457> 323 80<-150 589> 456 80<-150 456>
CounterMasks: 1 e0
LayerCount: 2
Fore
SplineSet
363 771 m 1
 637 497 l 1
 566 426 l 1
 536 456 l 1
 536 -150 l 1
 456 -150 l 1
 456 536 l 1
 403 589 l 1
 403 -150 l 1
 323 -150 l 1
 323 589 l 1
 270 536 l 1
 270 -150 l 1
 190 -150 l 1
 190 457 l 1
 159 426 l 1
 89 497 l 1
 363 771 l 1
EndSplineSet
EndChar

StartChar: uni21DA
Encoding: 184 8666 184
Width: 1080
Flags: HW
HStem: 127 80<384 990> 260 80<251 990> 393 80<384 990>
CounterMasks: 1 e0
LayerCount: 2
Fore
SplineSet
69 300 m 1
 343 574 l 1
 414 503 l 1
 384 473 l 1
 990 473 l 1
 990 393 l 1
 304 393 l 1
 251 340 l 1
 990 340 l 1
 990 260 l 1
 251 260 l 1
 304 207 l 1
 990 207 l 1
 990 127 l 1
 384 127 l 1
 414 97 l 1
 343 26 l 1
 69 300 l 1
EndSplineSet
EndChar

StartChar: uni290B
Encoding: 185 10507 185
Width: 726
Flags: HW
VStem: 190 80<143 750> 323 80<11 750> 456 80<144 750>
CounterMasks: 1 e0
LayerCount: 2
Fore
SplineSet
363 -171 m 1
 89 103 l 1
 159 174 l 1
 190 143 l 1
 190 750 l 1
 270 750 l 1
 270 64 l 1
 323 11 l 1
 323 750 l 1
 403 750 l 1
 403 11 l 1
 456 64 l 1
 456 750 l 1
 536 750 l 1
 536 144 l 1
 566 174 l 1
 637 103 l 1
 363 -171 l 1
EndSplineSet
EndChar

StartChar: uni27F6
Encoding: 186 10230 186
Width: 1680
Flags: HW
HStem: 250 100<90 1419>
LayerCount: 2
Fore
SplineSet
1611 300 m 1
 1416 105 l 1
 1345 176 l 1
 1419 250 l 1
 90 250 l 1
 90 350 l 1
 1419 350 l 1
 1345 424 l 1
 1416 495 l 1
 1611 300 l 1
EndSplineSet
EndChar

StartChar: uni27F5
Encoding: 187 10229 187
Width: 1680
Flags: HW
HStem: 250 100<261 1590>
LayerCount: 2
Fore
SplineSet
69 300 m 1
 264 495 l 1
 335 424 l 1
 261 350 l 1
 1590 350 l 1
 1590 250 l 1
 261 250 l 1
 335 176 l 1
 264 105 l 1
 69 300 l 1
EndSplineSet
EndChar

StartChar: uni27F9
Encoding: 188 10233 188
Width: 1680
Flags: HW
HStem: 150 100<90 1321> 350 100<90 1321>
LayerCount: 2
Fore
SplineSet
1611 300 m 1
 1368 58 l 1
 1298 128 l 1
 1321 151 l 1
 90 150 l 1
 90 250 l 1
 1420 251 l 1
 1469 300 l 1
 1420 349 l 1
 90 350 l 1
 90 450 l 1
 1321 449 l 1
 1298 472 l 1
 1368 542 l 1
 1611 300 l 1
EndSplineSet
EndChar

StartChar: uni27F8
Encoding: 189 10232 189
Width: 1680
Flags: HW
HStem: 151 100<359 1590> 349 100<359 1590>
LayerCount: 2
Fore
SplineSet
69 300 m 1
 312 542 l 1
 382 472 l 1
 359 449 l 1
 1590 450 l 1
 1590 350 l 1
 260 349 l 1
 211 300 l 1
 260 251 l 1
 1590 250 l 1
 1590 150 l 1
 359 151 l 1
 382 128 l 1
 312 58 l 1
 69 300 l 1
EndSplineSet
EndChar

StartChar: uni27F7
Encoding: 190 10231 190
Width: 1680
Flags: HW
HStem: 250 100<261 1419>
LayerCount: 2
Fore
SplineSet
69 300 m 1
 264 495 l 1
 335 424 l 1
 261 350 l 1
 1419 350 l 1
 1345 424 l 1
 1416 495 l 1
 1611 300 l 1
 1416 105 l 1
 1345 176 l 1
 1419 250 l 1
 261 250 l 1
 335 176 l 1
 264 105 l 1
 69 300 l 1
EndSplineSet
EndChar

StartChar: uni27FA
Encoding: 191 10234 191
Width: 1680
Flags: HW
HStem: 151 100<359 1321> 349 100<359 1321>
LayerCount: 2
Fore
SplineSet
1420 349 m 1
 260 349 l 1
 211 300 l 1
 260 251 l 1
 1420 251 l 1
 1469 300 l 1
 1420 349 l 1
69 300 m 1
 312 542 l 1
 382 472 l 1
 359 449 l 1
 1321 449 l 1
 1298 472 l 1
 1368 542 l 1
 1611 300 l 1
 1368 58 l 1
 1298 128 l 1
 1321 151 l 1
 359 151 l 1
 382 128 l 1
 312 58 l 1
 69 300 l 1
EndSplineSet
EndChar

StartChar: uni27FC
Encoding: 192 10236 192
Width: 1680
Flags: HW
HStem: 250 100<190 1419>
VStem: 90 100<91 250 350 509>
LayerCount: 2
Fore
SplineSet
1611 300 m 1
 1416 105 l 1
 1345 176 l 1
 1419 250 l 1
 190 250 l 1
 190 91 l 1
 90 91 l 1
 90 509 l 1
 190 509 l 1
 190 350 l 1
 1419 350 l 1
 1345 424 l 1
 1416 495 l 1
 1611 300 l 1
EndSplineSet
EndChar

StartChar: uni27FB
Encoding: 193 10235 193
Width: 1680
Flags: HW
HStem: 250 100<261 1490>
VStem: 1490 100<91 250 350 509>
LayerCount: 2
Fore
SplineSet
69 300 m 1
 264 495 l 1
 335 424 l 1
 261 350 l 1
 1490 350 l 1
 1490 509 l 1
 1590 509 l 1
 1590 91 l 1
 1490 91 l 1
 1490 250 l 1
 261 250 l 1
 335 176 l 1
 264 105 l 1
 69 300 l 1
EndSplineSet
EndChar

StartChar: uni27FE
Encoding: 194 10238 194
Width: 1680
Flags: HW
HStem: 150 100<190 1321> 350 100<190 1321> 537 20G<90 190>
VStem: 90 100<43 150 250 350 450 557>
LayerCount: 2
Fore
SplineSet
190 350 m 1
 190 250 l 1
 1420 251 l 1
 1469 300 l 1
 1420 349 l 1
 190 350 l 1
1611 300 m 1
 1368 58 l 1
 1298 128 l 1
 1321 151 l 1
 190 150 l 1
 190 43 l 1
 90 43 l 1
 90 557 l 1
 190 557 l 1
 190 450 l 1
 1321 449 l 1
 1298 472 l 1
 1368 542 l 1
 1611 300 l 1
EndSplineSet
EndChar

StartChar: uni27FD
Encoding: 195 10237 195
Width: 1680
Flags: HW
HStem: 151 100<359 1490> 349 100<359 1490> 537 20G<1490 1590>
VStem: 1490 100<43 150 250 350 450 557>
LayerCount: 2
Fore
SplineSet
1490 250 m 1
 1490 350 l 1
 260 349 l 1
 211 300 l 1
 260 251 l 1
 1490 250 l 1
69 300 m 1
 312 542 l 1
 382 472 l 1
 359 449 l 1
 1490 450 l 1
 1490 557 l 1
 1590 557 l 1
 1590 43 l 1
 1490 43 l 1
 1490 150 l 1
 359 151 l 1
 382 128 l 1
 312 58 l 1
 69 300 l 1
EndSplineSet
EndChar

StartChar: uni27FF
Encoding: 196 10239 196
Width: 1680
Flags: HW
HStem: 170 100<432.682 498.643 823.164 889.318 1214.09 1272.56> 250 100<1350.55 1419> 330 100<228.531 303.318 627.682 693.908 1018.68 1084.84>
LayerCount: 2
Fore
SplineSet
1611 300 m 1x40
 1416 105 l 1
 1345 176 l 1
 1419 250 l 1
 1377 250 l 2x40
 1363 250 1357 235 1347 225 c 0
 1319 197 1287 170 1247 170 c 0
 1187 170 1144 221 1108 271 c 0
 1092 295 1081 330 1052 330 c 0
 1022 330 1012 295 995 271 c 0
 960 221 917 170 856 170 c 0
 796 170 753 221 718 271 c 0
 701 295 690 330 661 330 c 0
 631 330 621 295 604 271 c 0
 569 221 526 170 466 170 c 0
 405 170 362 221 327 271 c 0
 310 295 300 330 270 330 c 0
 222 330 208 271 181 232 c 1
 99 289 l 1
 145 354 192 430 270 430 c 0
 331 430 374 379 409 329 c 0
 426 305 436 270 466 270 c 0
 495 270 505 305 522 329 c 0
 557 379 600 430 661 430 c 0
 721 430 764 379 800 329 c 0
 816 305 827 270 856 270 c 0
 886 270 896 305 913 329 c 0
 948 379 991 430 1052 430 c 0
 1112 430 1155 379 1190 329 c 0
 1207 305 1218 270 1247 270 c 0xa0
 1261 270 1267 286 1277 296 c 0
 1305 324 1338 350 1377 350 c 2
 1419 350 l 1
 1345 424 l 1
 1416 495 l 1
 1611 300 l 1x40
EndSplineSet
EndChar

StartChar: uni2B33
Encoding: 197 11059 197
Width: 1680
Flags: HW
HStem: 170 100<407.436 466.089 790.682 856.836 1181.36 1247.32> 250 100<261 329.446> 330 100<595.357 661.318 986.092 1052.32 1376.68 1451.47>
LayerCount: 2
Fore
SplineSet
69 300 m 1x40
 264 495 l 1
 335 424 l 1
 261 350 l 1
 303 350 l 2x40
 342 350 375 324 403 296 c 0
 413 286 419 270 433 270 c 0
 463 270 473 305 490 329 c 0
 525 379 568 430 628 430 c 0
 689 430 732 379 767 329 c 0
 784 305 794 270 824 270 c 0
 853 270 864 305 880 329 c 0
 916 379 959 430 1019 430 c 0
 1080 430 1123 379 1158 329 c 0
 1175 305 1185 270 1214 270 c 0
 1244 270 1254 305 1271 329 c 0
 1306 379 1349 430 1410 430 c 0
 1488 430 1535 354 1581 289 c 1
 1499 232 l 1
 1472 271 1458 330 1410 330 c 0
 1380 330 1370 295 1353 271 c 0
 1318 221 1275 170 1214 170 c 0
 1154 170 1111 221 1076 271 c 0
 1059 295 1049 330 1019 330 c 0
 990 330 979 295 962 271 c 0
 927 221 884 170 824 170 c 0
 763 170 720 221 685 271 c 0
 668 295 658 330 628 330 c 0
 599 330 589 295 572 271 c 0
 536 221 493 170 433 170 c 0xa0
 393 170 361 197 333 225 c 0
 323 235 317 250 303 250 c 2
 261 250 l 1
 335 176 l 1
 264 105 l 1
 69 300 l 1x40
EndSplineSet
EndChar

StartChar: uni27DD
Encoding: 198 10205 198
Width: 1680
Flags: HW
HStem: 250 100<190 1590>
VStem: 90 100<91 250 350 509>
LayerCount: 2
Fore
SplineSet
190 91 m 1
 90 91 l 1
 90 509 l 1
 190 509 l 1
 190 350 l 1
 1590 350 l 1
 1590 250 l 1
 190 250 l 1
 190 91 l 1
EndSplineSet
EndChar

StartChar: uni27DE
Encoding: 199 10206 199
Width: 1680
Flags: HW
HStem: 250 100<90 1490>
VStem: 1490 100<91 250 350 509>
LayerCount: 2
Fore
SplineSet
1490 509 m 1
 1590 509 l 1
 1590 91 l 1
 1490 91 l 1
 1490 250 l 1
 90 250 l 1
 90 350 l 1
 1490 350 l 1
 1490 509 l 1
EndSplineSet
EndChar

StartChar: uni21B0
Encoding: 200 8624 200
Width: 705
Flags: HW
HStem: 409 100<261 515>
VStem: 515 100<-68 409>
LayerCount: 2
Fore
SplineSet
69 459 m 1
 264 654 l 1
 335 583 l 1
 261 509 l 1
 615 509 l 1
 615 -68 l 1
 515 -68 l 1
 515 409 l 1
 261 409 l 1
 335 335 l 1
 264 265 l 1
 69 459 l 1
EndSplineSet
EndChar

StartChar: uni21B1
Encoding: 201 8625 201
Width: 705
Flags: HW
HStem: 409 100<190 444>
VStem: 90 100<-68 409>
LayerCount: 2
Fore
SplineSet
635 459 m 1
 441 265 l 1
 370 335 l 1
 444 409 l 1
 190 409 l 1
 190 -68 l 1
 90 -68 l 1
 90 509 l 1
 444 509 l 1
 370 583 l 1
 441 654 l 1
 635 459 l 1
EndSplineSet
EndChar

StartChar: uni21B2
Encoding: 202 8626 202
Width: 705
Flags: HW
HStem: 91 100<261 515>
VStem: 515 100<191 668>
LayerCount: 2
Fore
SplineSet
69 141 m 1
 264 335 l 1
 335 265 l 1
 261 191 l 1
 515 191 l 1
 515 668 l 1
 615 668 l 1
 615 91 l 1
 261 91 l 1
 335 17 l 1
 264 -54 l 1
 69 141 l 1
EndSplineSet
EndChar

StartChar: uni21B3
Encoding: 203 8627 203
Width: 705
Flags: HW
HStem: 91 100<190 444>
VStem: 90 100<191 668>
LayerCount: 2
Fore
SplineSet
635 141 m 1
 441 -54 l 1
 370 17 l 1
 444 91 l 1
 90 91 l 1
 90 668 l 1
 190 668 l 1
 190 191 l 1
 444 191 l 1
 370 265 l 1
 441 335 l 1
 635 141 l 1
EndSplineSet
EndChar

StartChar: uni21AC
Encoding: 204 8620 204
Width: 930
Flags: HW
HStem: 250 100<239.525 415 515 669> 575 100<238.427 366.955>
VStem: 90 100<398.427 526.955> 415 100<-75 250 350 526.011>
LayerCount: 2
Fore
SplineSet
415 350 m 1
 415 463 l 2
 415 525 365 575 303 575 c 0
 240 575 190 525 190 463 c 0
 190 400 240 350 303 350 c 2
 415 350 l 1
861 300 m 1
 666 105 l 1
 595 176 l 1
 669 250 l 1
 515 250 l 1
 515 -75 l 1
 415 -75 l 1
 415 250 l 1
 303 250 l 2
 185 250 90 345 90 463 c 0
 90 580 185 675 303 675 c 0
 420 675 515 580 515 463 c 2
 515 350 l 1
 669 350 l 1
 595 424 l 1
 666 495 l 1
 861 300 l 1
EndSplineSet
EndChar

StartChar: uni21AB
Encoding: 205 8619 205
Width: 930
Flags: HW
HStem: 250 100<261 415 515 691.011> 575 100<563.427 691.955>
VStem: 415 100<-75 250 350 526.011> 740 100<398.427 526.955>
LayerCount: 2
Fore
SplineSet
515 350 m 1
 628 350 l 2
 690 350 740 400 740 463 c 0
 740 525 690 575 628 575 c 0
 565 575 515 525 515 463 c 2
 515 350 l 1
69 300 m 1
 264 495 l 1
 335 424 l 1
 261 350 l 1
 415 350 l 1
 415 463 l 2
 415 580 510 675 628 675 c 0
 745 675 840 580 840 463 c 0
 840 345 745 250 628 250 c 2
 515 250 l 1
 515 -75 l 1
 415 -75 l 1
 415 250 l 1
 261 250 l 1
 335 176 l 1
 264 105 l 1
 69 300 l 1
EndSplineSet
EndChar

StartChar: uni22A2
Encoding: 224 8866 206
Width: 840
Flags: HW
HStem: 0 21G<90 190> 304 100<190 750> 687 20G<90 190>
VStem: 90 100<0 304 404 707>
LayerCount: 2
Fore
SplineSet
190 0 m 1
 90 0 l 1
 90 707 l 1
 190 707 l 1
 190 404 l 1
 750 404 l 1
 750 304 l 1
 190 304 l 1
 190 0 l 1
EndSplineSet
EndChar

StartChar: uni22A5
Encoding: 225 8869 207
Width: 840
Flags: HW
HStem: 0 100<90 370 470 750> 687 20G<370 470>
VStem: 370 100<100 707>
LayerCount: 2
Fore
SplineSet
750 100 m 1
 750 0 l 1
 90 0 l 1
 90 100 l 1
 370 100 l 1
 370 707 l 1
 470 707 l 1
 470 100 l 1
 750 100 l 1
EndSplineSet
EndChar

StartChar: uni22A3
Encoding: 226 8867 208
Width: 840
Flags: HW
HStem: 0 21G<650 750> 304 100<90 650> 687 20G<650 750>
VStem: 650 100<0 304 404 707>
LayerCount: 2
Fore
SplineSet
650 707 m 1
 750 707 l 1
 750 0 l 1
 650 0 l 1
 650 304 l 1
 90 304 l 1
 90 404 l 1
 650 404 l 1
 650 707 l 1
EndSplineSet
EndChar

StartChar: uni22A4
Encoding: 227 8868 209
Width: 840
Flags: HW
HStem: 0 21G<370 470> 607 100<90 370 470 750>
VStem: 370 100<0 607>
LayerCount: 2
Fore
SplineSet
90 607 m 1
 90 707 l 1
 750 707 l 1
 750 607 l 1
 470 607 l 1
 470 0 l 1
 370 0 l 1
 370 607 l 1
 90 607 l 1
EndSplineSet
EndChar

StartChar: uni22A6
Encoding: 228 8870 210
Width: 642
Flags: HW
HStem: 0 21G<90 190> 304 100<190 552> 687 20G<90 190>
VStem: 90 100<0 304 404 707>
LayerCount: 2
Fore
SplineSet
190 0 m 1
 90 0 l 1
 90 707 l 1
 190 707 l 1
 190 404 l 1
 552 404 l 1
 552 304 l 1
 190 304 l 1
 190 0 l 1
EndSplineSet
EndChar

StartChar: uni2AE0
Encoding: 229 10976 211
Width: 840
Flags: HW
HStem: 0 100<90 370 470 750>
VStem: 370 100<100 495>
LayerCount: 2
Fore
SplineSet
750 100 m 1
 750 0 l 1
 90 0 l 1
 90 100 l 1
 370 100 l 1
 370 495 l 1
 470 495 l 1
 470 100 l 1
 750 100 l 1
EndSplineSet
EndChar

StartChar: uni2ADE
Encoding: 230 10974 212
Width: 642
Flags: HW
HStem: 0 21G<452 552> 304 100<90 452> 687 20G<452 552>
VStem: 452 100<0 304 404 707>
LayerCount: 2
Fore
SplineSet
452 707 m 1
 552 707 l 1
 552 0 l 1
 452 0 l 1
 452 304 l 1
 90 304 l 1
 90 404 l 1
 452 404 l 1
 452 707 l 1
EndSplineSet
EndChar

StartChar: uni2ADF
Encoding: 231 10975 213
Width: 840
Flags: HW
HStem: 0 21G<370 470> 395 100<90 370 470 750>
VStem: 370 100<0 395>
LayerCount: 2
Fore
SplineSet
90 395 m 1
 90 495 l 1
 750 495 l 1
 750 395 l 1
 470 395 l 1
 470 0 l 1
 370 0 l 1
 370 395 l 1
 90 395 l 1
EndSplineSet
EndChar

StartChar: uni22A8
Encoding: 232 8872 214
Width: 840
Flags: HW
HStem: 0 21G<90 190> 204 100<190 750> 403 100<190 750> 687 20G<90 190>
VStem: 90 100<0 204 304 403 503 707>
LayerCount: 2
Fore
SplineSet
190 0 m 1
 90 0 l 1
 90 707 l 1
 190 707 l 1
 190 503 l 1
 750 503 l 1
 750 403 l 1
 190 403 l 1
 190 304 l 1
 750 304 l 1
 750 204 l 1
 190 204 l 1
 190 0 l 1
EndSplineSet
EndChar

StartChar: uni2AEB
Encoding: 233 10987 215
Width: 840
Flags: HW
HStem: 0 100<90 271 371 470 570 750> 687 20G<271 371 470 570>
VStem: 271 100<100 707> 470 100<100 707>
LayerCount: 2
Fore
SplineSet
750 100 m 1
 750 0 l 1
 90 0 l 1
 90 100 l 1
 271 100 l 1
 271 707 l 1
 371 707 l 1
 371 100 l 1
 470 100 l 1
 470 707 l 1
 570 707 l 1
 570 100 l 1
 750 100 l 1
EndSplineSet
EndChar

StartChar: uni2AE4
Encoding: 234 10980 216
Width: 840
Flags: HW
HStem: 0 21G<650 750> 204 100<90 650> 403 100<90 650> 687 20G<650 750>
VStem: 650 100<0 204 304 403 503 707>
LayerCount: 2
Fore
SplineSet
650 707 m 1
 750 707 l 1
 750 0 l 1
 650 0 l 1
 650 204 l 1
 90 204 l 1
 90 304 l 1
 650 304 l 1
 650 403 l 1
 90 403 l 1
 90 503 l 1
 650 503 l 1
 650 707 l 1
EndSplineSet
EndChar

StartChar: uni2AEA
Encoding: 235 10986 217
Width: 840
Flags: HW
HStem: 0 21G<271 371 470 570> 607 100<90 271 371 470 570 750>
VStem: 271 100<0 607> 470 100<0 607>
LayerCount: 2
Fore
SplineSet
90 607 m 1
 90 707 l 1
 750 707 l 1
 750 607 l 1
 570 607 l 1
 570 0 l 1
 470 0 l 1
 470 607 l 1
 371 607 l 1
 371 0 l 1
 271 0 l 1
 271 607 l 1
 90 607 l 1
EndSplineSet
EndChar

StartChar: uni22A7
Encoding: 236 8871 218
Width: 642
Flags: HW
HStem: 0 21G<90 190> 204 100<190 552> 403 100<190 552> 687 20G<90 190>
VStem: 90 100<0 204 304 403 503 707>
LayerCount: 2
Fore
SplineSet
190 0 m 1
 90 0 l 1
 90 707 l 1
 190 707 l 1
 190 503 l 1
 552 503 l 1
 552 403 l 1
 190 403 l 1
 190 304 l 1
 552 304 l 1
 552 204 l 1
 190 204 l 1
 190 0 l 1
EndSplineSet
EndChar

StartChar: sym07E
Encoding: 237 -1 219
Width: 840
Flags: HW
HStem: 0 100<90 271 371 470 570 750>
VStem: 271 100<100 495> 470 100<100 495>
LayerCount: 2
Fore
SplineSet
750 100 m 1
 750 0 l 1
 90 0 l 1
 90 100 l 1
 271 100 l 1
 271 495 l 1
 371 495 l 1
 371 100 l 1
 470 100 l 1
 470 495 l 1
 570 495 l 1
 570 100 l 1
 750 100 l 1
EndSplineSet
EndChar

StartChar: sym07D
Encoding: 238 -1 220
Width: 642
Flags: HW
HStem: 0 21G<452 552> 204 100<90 452> 403 100<90 452> 687 20G<452 552>
VStem: 452 100<0 204 304 403 503 707>
LayerCount: 2
Fore
SplineSet
452 707 m 1
 552 707 l 1
 552 0 l 1
 452 0 l 1
 452 204 l 1
 90 204 l 1
 90 304 l 1
 452 304 l 1
 452 403 l 1
 90 403 l 1
 90 503 l 1
 452 503 l 1
 452 707 l 1
EndSplineSet
EndChar

StartChar: sym07F
Encoding: 239 -1 221
Width: 840
Flags: HW
HStem: 0 21G<271 371 470 570> 395 100<90 271 371 470 570 750>
VStem: 271 100<0 395> 470 100<0 395>
LayerCount: 2
Fore
SplineSet
90 395 m 1
 90 495 l 1
 750 495 l 1
 750 395 l 1
 570 395 l 1
 570 0 l 1
 470 0 l 1
 470 395 l 1
 371 395 l 1
 371 0 l 1
 271 0 l 1
 271 395 l 1
 90 395 l 1
EndSplineSet
EndChar

StartChar: uni22A9
Encoding: 240 8873 222
Width: 1038
Flags: HW
HStem: 0 21G<90 190 288 388> 304 100<388 948> 687 20G<90 190 288 388>
VStem: 90 100<0 707> 288 100<0 304 404 707>
LayerCount: 2
Fore
SplineSet
190 0 m 1
 90 0 l 1
 90 707 l 1
 190 707 l 1
 190 0 l 1
388 0 m 1
 288 0 l 1
 288 707 l 1
 388 707 l 1
 388 404 l 1
 948 404 l 1
 948 304 l 1
 388 304 l 1
 388 0 l 1
EndSplineSet
EndChar

StartChar: uni234A
Encoding: 241 9034 223
Width: 840
Flags: HW
HStem: -106 100<90 750> 92 100<90 370 470 750>
VStem: 370 100<192 813>
LayerCount: 2
Fore
SplineSet
750 -6 m 1
 750 -106 l 1
 90 -106 l 1
 90 -6 l 1
 750 -6 l 1
750 192 m 1
 750 92 l 1
 90 92 l 1
 90 192 l 1
 370 192 l 1
 370 813 l 1
 470 813 l 1
 470 192 l 1
 750 192 l 1
EndSplineSet
EndChar

StartChar: uni2AE3
Encoding: 242 10979 224
Width: 1038
Flags: HW
HStem: 0 21G<650 750 848 948> 304 100<90 650> 687 20G<650 750 848 948>
VStem: 650 100<0 304 404 707> 848 100<0 707>
LayerCount: 2
Fore
SplineSet
848 707 m 1
 948 707 l 1
 948 0 l 1
 848 0 l 1
 848 707 l 1
650 707 m 1
 750 707 l 1
 750 0 l 1
 650 0 l 1
 650 304 l 1
 90 304 l 1
 90 404 l 1
 650 404 l 1
 650 707 l 1
EndSplineSet
EndChar

StartChar: uni2351
Encoding: 243 9041 225
Width: 840
Flags: HW
HStem: 515 100<90 370 470 750> 713 100<90 750>
VStem: 370 100<-106 515>
LayerCount: 2
Fore
SplineSet
90 713 m 1
 90 813 l 1
 750 813 l 1
 750 713 l 1
 90 713 l 1
90 515 m 1
 90 615 l 1
 750 615 l 1
 750 515 l 1
 470 515 l 1
 470 -106 l 1
 370 -106 l 1
 370 515 l 1
 90 515 l 1
EndSplineSet
EndChar

StartChar: uni22A9.alt
Encoding: 244 -1 226
Width: 840
Flags: HW
HStem: 0 21G<90 190 288 388> 304 100<388 750> 687 20G<90 190 288 388>
VStem: 90 100<0 707> 288 100<0 304 404 707>
LayerCount: 2
Fore
SplineSet
190 0 m 1
 90 0 l 1
 90 707 l 1
 190 707 l 1
 190 0 l 1
388 0 m 1
 288 0 l 1
 288 707 l 1
 388 707 l 1
 388 404 l 1
 750 404 l 1
 750 304 l 1
 388 304 l 1
 388 0 l 1
EndSplineSet
EndChar

StartChar: uni2AE8
Encoding: 245 10984 227
Width: 840
Flags: HW
HStem: 0 100<90 750> 198 100<90 370 470 750> 687 20G<370 470>
VStem: 370 100<298 707>
LayerCount: 2
Fore
SplineSet
750 100 m 1
 750 0 l 1
 90 0 l 1
 90 100 l 1
 750 100 l 1
750 298 m 1
 750 198 l 1
 90 198 l 1
 90 298 l 1
 370 298 l 1
 370 707 l 1
 470 707 l 1
 470 298 l 1
 750 298 l 1
EndSplineSet
EndChar

StartChar: uni2AE3.alt
Encoding: 246 -1 228
Width: 840
Flags: HW
HStem: 0 21G<452 552 650 750> 304 100<90 452> 687 20G<452 552 650 750>
VStem: 452 100<0 304 404 707> 650 100<0 707>
LayerCount: 2
Fore
SplineSet
650 707 m 1
 750 707 l 1
 750 0 l 1
 650 0 l 1
 650 707 l 1
452 707 m 1
 552 707 l 1
 552 0 l 1
 452 0 l 1
 452 304 l 1
 90 304 l 1
 90 404 l 1
 452 404 l 1
 452 707 l 1
EndSplineSet
EndChar

StartChar: uni2AE7
Encoding: 247 10983 229
Width: 840
Flags: HW
HStem: 0 21G<370 470> 409 100<90 370 470 750> 607 100<90 750>
VStem: 370 100<0 409>
LayerCount: 2
Fore
SplineSet
90 607 m 1
 90 707 l 1
 750 707 l 1
 750 607 l 1
 90 607 l 1
90 409 m 1
 90 509 l 1
 750 509 l 1
 750 409 l 1
 470 409 l 1
 470 0 l 1
 370 0 l 1
 370 409 l 1
 90 409 l 1
EndSplineSet
EndChar

StartChar: uni22AB
Encoding: 248 8875 230
Width: 1038
Flags: HW
HStem: 0 21G<90 190 288 388> 204 100<388 948> 403 100<388 948> 687 20G<90 190 288 388>
VStem: 90 100<0 707> 288 100<0 204 304 403 503 707>
LayerCount: 2
Fore
SplineSet
190 0 m 1
 90 0 l 1
 90 707 l 1
 190 707 l 1
 190 0 l 1
388 0 m 1
 288 0 l 1
 288 707 l 1
 388 707 l 1
 388 503 l 1
 948 503 l 1
 948 403 l 1
 388 403 l 1
 388 304 l 1
 948 304 l 1
 948 204 l 1
 388 204 l 1
 388 0 l 1
EndSplineSet
EndChar

StartChar: sym080
Encoding: 249 -1 231
Width: 840
Flags: HW
HStem: -106 100<90 750> 92 100<90 271 371 470 570 750>
VStem: 271 100<192 813> 470 100<192 813>
LayerCount: 2
Fore
SplineSet
750 -6 m 1
 750 -106 l 1
 90 -106 l 1
 90 -6 l 1
 750 -6 l 1
750 192 m 1
 750 92 l 1
 90 92 l 1
 90 192 l 1
 271 192 l 1
 271 813 l 1
 371 813 l 1
 371 192 l 1
 470 192 l 1
 470 813 l 1
 570 813 l 1
 570 192 l 1
 750 192 l 1
EndSplineSet
EndChar

StartChar: uni2AE5
Encoding: 250 10981 232
Width: 1038
Flags: HW
HStem: 0 21G<650 750 848 948> 204 100<90 650> 403 100<90 650> 687 20G<650 750 848 948>
VStem: 650 100<0 204 304 403 503 707> 848 100<0 707>
LayerCount: 2
Fore
SplineSet
848 707 m 1
 948 707 l 1
 948 0 l 1
 848 0 l 1
 848 707 l 1
650 707 m 1
 750 707 l 1
 750 0 l 1
 650 0 l 1
 650 204 l 1
 90 204 l 1
 90 304 l 1
 650 304 l 1
 650 403 l 1
 90 403 l 1
 90 503 l 1
 650 503 l 1
 650 707 l 1
EndSplineSet
EndChar

StartChar: sym081
Encoding: 251 -1 233
Width: 840
Flags: HW
HStem: 515 100<90 271 371 470 570 750> 713 100<90 750>
VStem: 271 100<-106 515> 470 100<-106 515>
LayerCount: 2
Fore
SplineSet
90 713 m 1
 90 813 l 1
 750 813 l 1
 750 713 l 1
 90 713 l 1
90 515 m 1
 90 615 l 1
 750 615 l 1
 750 515 l 1
 570 515 l 1
 570 -106 l 1
 470 -106 l 1
 470 515 l 1
 371 515 l 1
 371 -106 l 1
 271 -106 l 1
 271 515 l 1
 90 515 l 1
EndSplineSet
EndChar

StartChar: uni22AA
Encoding: 252 8874 234
Width: 1038
Flags: HW
HStem: 0 21G<90 190 288 388 486 586> 304 100<586 948> 687 20G<90 190 288 388 486 586>
VStem: 90 100<0 707> 288 100<0 707> 486 100<0 304 404 707>
CounterMasks: 1 1c
LayerCount: 2
Fore
SplineSet
190 0 m 1
 90 0 l 1
 90 707 l 1
 190 707 l 1
 190 0 l 1
388 0 m 1
 288 0 l 1
 288 707 l 1
 388 707 l 1
 388 0 l 1
586 0 m 1
 486 0 l 1
 486 707 l 1
 586 707 l 1
 586 404 l 1
 948 404 l 1
 948 304 l 1
 586 304 l 1
 586 0 l 1
EndSplineSet
EndChar

StartChar: sym082
Encoding: 253 -1 235
Width: 1038
Flags: HW
HStem: 0 21G<452 552 650 750 848 948> 304 100<90 452> 687 20G<452 552 650 750 848 948>
VStem: 452 100<0 304 404 707> 650 100<0 707> 848 100<0 707>
CounterMasks: 1 1c
LayerCount: 2
Fore
SplineSet
848 707 m 1
 948 707 l 1
 948 0 l 1
 848 0 l 1
 848 707 l 1
650 707 m 1
 750 707 l 1
 750 0 l 1
 650 0 l 1
 650 707 l 1
452 707 m 1
 552 707 l 1
 552 0 l 1
 452 0 l 1
 452 304 l 1
 90 304 l 1
 90 404 l 1
 452 404 l 1
 452 707 l 1
EndSplineSet
EndChar

StartChar: uni2AE2
Encoding: 254 10978 236
Width: 840
Flags: HW
HStem: 0 21G<90 190> 104 100<190 750> 304 100<190 750> 503 100<190 750> 687 20G<90 190>
VStem: 90 100<0 104 204 304 404 503 603 707>
LayerCount: 2
Fore
SplineSet
190 0 m 1
 90 0 l 1
 90 707 l 1
 190 707 l 1
 190 603 l 1
 750 603 l 1
 750 503 l 1
 190 503 l 1
 190 404 l 1
 750 404 l 1
 750 304 l 1
 190 304 l 1
 190 204 l 1
 750 204 l 1
 750 104 l 1
 190 104 l 1
 190 0 l 1
EndSplineSet
EndChar

StartChar: sym083
Encoding: 255 -1 237
Width: 840
Flags: HW
HStem: 0 21G<650 750> 104 100<90 650> 304 100<90 650> 503 100<90 650> 687 20G<650 750>
VStem: 650 100<0 104 204 304 404 503 603 707>
LayerCount: 2
Fore
SplineSet
650 707 m 1
 750 707 l 1
 750 0 l 1
 650 0 l 1
 650 104 l 1
 90 104 l 1
 90 204 l 1
 650 204 l 1
 650 304 l 1
 90 304 l 1
 90 404 l 1
 650 404 l 1
 650 503 l 1
 90 503 l 1
 90 603 l 1
 650 603 l 1
 650 707 l 1
EndSplineSet
EndChar
